<?xml version="1.0" encoding="UTF-8"?>
<svg version="1.1" xmlns="http://www.w3.org/2000/svg" width="1024" height="1024">
<path d="M0 0 C1.7209454 0.00977395 3.44189282 0.01919724 5.1628418 0.02832031 C9.24325447 0.05315917 13.3234977 0.08757733 17.40380859 0.12548828 C23.12287702 0.17633779 28.84180648 0.20698885 34.56103516 0.22998047 C42.58317733 0.26253882 50.60506628 0.31166603 58.62701607 0.37622166 C63.15850013 0.4123979 67.68982817 0.44254581 72.22143555 0.45767212 C76.56274564 0.47278474 80.90350909 0.50742293 85.24457359 0.55562019 C86.85930356 0.57037748 88.47411009 0.578547 90.08890724 0.57943535 C104.00666526 0.59422186 115.66911297 2.60349468 127 11.1875 C127.99 11.8475 128.98 12.5075 130 13.1875 C130 13.8475 130 14.5075 130 15.1875 C130.66 15.1875 131.32 15.1875 132 15.1875 C144.346337 29.964969 146.15368836 45.10480308 146.14526367 63.88427734 C146.14862228 64.98520218 146.1519809 66.08612701 146.15544128 67.22041321 C146.16485781 70.82143311 146.16688951 74.42240609 146.16796875 78.0234375 C146.17118719 80.55107644 146.17455169 83.0787152 146.17805481 85.60635376 C146.18402239 90.88991597 146.18594026 96.17346647 146.18530273 101.45703125 C146.18470233 107.52822215 146.19525726 113.59932411 146.2110464 119.67049253 C146.22579503 125.55551774 146.22928821 131.44050827 146.22869301 137.32555008 C146.22986585 139.80921416 146.23424813 142.29287904 146.24202538 144.77653122 C146.35958543 186.18562681 146.35958543 186.18562681 130.96875 202.31640625 C114.0261126 218.49171405 92.83682931 217.65448668 70.9453125 217.62109375 C68.31322089 217.62566314 65.68113047 217.63097094 63.04904175 217.63697815 C57.55039491 217.64695814 52.05186606 217.64375948 46.55322266 217.63354492 C40.23992264 217.62207456 33.927048 217.63613914 27.61380398 217.6629414 C21.48739887 217.68795506 15.36118685 217.69024498 9.2347374 217.68382454 C6.65224373 217.68367228 4.0697415 217.68963685 1.48727798 217.70211601 C-19.88825246 217.79087303 -38.34093208 217.0332223 -54.640625 201.6953125 C-65.3462281 190.31617808 -68.62170641 176.87165306 -68.51757812 161.60131836 C-68.5245874 160.31171707 -68.53159668 159.02211578 -68.53881836 157.69343567 C-68.55685051 154.19748616 -68.55006948 150.7020157 -68.53730202 147.20605922 C-68.52707076 143.52282353 -68.53659525 139.83962488 -68.54284668 136.15638733 C-68.55009306 129.97584783 -68.54061413 123.79550047 -68.52148438 117.61499023 C-68.49971163 110.49899883 -68.50678183 103.38346592 -68.52879 96.26748556 C-68.54701891 90.12437203 -68.54946626 83.98139545 -68.53903532 77.83826357 C-68.53284251 74.18382139 -68.53184724 70.5295938 -68.54518127 66.87516594 C-68.5590231 62.79793595 -68.53976875 58.72148029 -68.51757812 54.64428711 C-68.52567505 53.45485504 -68.53377197 52.26542297 -68.54211426 51.03994751 C-68.39749933 36.61338176 -63.065028 24.76114098 -53.5625 14 C-49.9067258 10.58371776 -45.89027067 8.15443951 -41.5 5.8125 C-40.9026001 5.47839111 -40.3052002 5.14428223 -39.68969727 4.80004883 C-27.86158518 -1.07844874 -12.8787829 -0.1154156 0 0 Z M13.375 41.375 C12.11271471 41.96788259 10.85026185 42.56040855 9.58764648 43.15258789 C2.79188268 46.34860808 -3.97383136 49.59973533 -10.66748047 53.00512695 C-19.09617656 57.28419096 -27.63538312 61.34108938 -36.15209961 65.44116211 C-36.77086472 65.73910172 -37.38962982 66.03704132 -38.02714539 66.3440094 C-39.73042737 67.1639093 -41.434051 67.98309933 -43.13769531 68.80224609 C-45.434288 69.91371546 -47.72188237 71.03879399 -50 72.1875 C-50 72.8475 -50 73.5075 -50 74.1875 C-46.67598976 75.85265969 -43.33940633 77.49096473 -40 79.125 C-39.06542969 79.59357422 -38.13085938 80.06214844 -37.16796875 80.54492188 C-31.66199824 83.22090055 -27.12720328 84.84790265 -21 85.1875 C-20.96261719 86.15429688 -20.92523438 87.12109375 -20.88671875 88.1171875 C-20.29400312 99.85528138 -19.28757609 110.4816373 -10.23828125 118.80859375 C2.43045432 128.48509463 21.77873551 128.42328362 37.02929688 129.96923828 C62.22853306 132.56118512 62.22853306 132.56118512 70.125 138.5625 C73.8947501 143.84015013 74.50878093 148.40139452 73.64453125 154.7265625 C72.52042305 159.018612 70.5458478 161.5582204 67 164.1875 C60.98747629 167.39362414 54.85036093 169.79974372 48 170.1875 C47.36320312 170.249375 46.72640625 170.31125 46.0703125 170.375 C36.15573316 170.95607425 25.48148534 167.88006128 17.91015625 161.3984375 C14.78266211 157.77847496 10 151.1875283 10 146.1875 C4.03176735 145.31939343 -1.85275559 145.050955 -7.875 145 C-8.62450928 144.98710938 -9.37401855 144.97421875 -10.14624023 144.9609375 C-13.97216891 144.95401353 -15.74086986 145.01474657 -19 147.1875 C-17.20661807 161.16351091 -10.37675118 172.24753786 0.4140625 181.1875 C16.45932251 193.00496134 35.72152771 196.3186494 55.24462891 193.91064453 C70.77410034 191.45972056 86.29502696 184.97370973 96 172.1875 C103.48181579 160.21346426 105.74049649 148.35835831 102.69140625 134.60546875 C100.2501233 126.0678747 95.28880583 118.83737797 87.47558594 114.41723633 C76.1329541 108.7828343 63.37965266 107.76096426 51 106.1875 C17.158298 101.88619124 17.158298 101.88619124 10 93.1875 C7.37782682 88.74120634 7.36297267 84.17573729 8.4296875 79.171875 C10.50261431 72.46685247 14.54961183 69.22686681 20.4453125 65.7421875 C28.6553115 61.5534125 37.8165894 59.5724874 46.8125 62.375 C50.38501724 63.8040069 53.82653666 65.50890416 57.23828125 67.28515625 C60.08493186 68.74319681 63.07852292 69.83079919 66.05859375 70.984375 C74.35427004 74.397773 79.25969386 77.80820116 82.8125 86.25 C83.55671191 88.22355855 84.2867034 90.20255852 85 92.1875 C86.22881839 95.99205417 86.22881839 95.99205417 89.0625 98.5625 C93.11861083 99.42550231 96.99271331 99.30563805 101 98.1875 C103.48982705 96.22036802 103.94487899 95.42301705 104.6875 92.25 C105.06767579 89.03734434 105.06767579 89.03734434 105 85.1875 C112.26 81.5575 119.52 77.9275 127 74.1875 C124.38238743 71.56988743 123.03913077 70.54115104 119.8359375 69.05078125 C118.97806641 68.64666016 118.12019531 68.24253906 117.23632812 67.82617188 C115.8199707 67.1697168 115.8199707 67.1697168 114.375 66.5 C112.28853202 65.51805348 110.20262819 64.53490764 108.1171875 63.55078125 C106.97991211 63.01533691 105.84263672 62.47989258 104.67089844 61.92822266 C98.63344953 59.07410763 92.63320226 56.1426296 86.62796021 53.22155762 C84.50028011 52.18763612 82.37134668 51.15634385 80.24194336 50.12597656 C73.83554801 47.02548538 67.43575999 43.91414847 61.05859375 40.75390625 C60.01445312 40.24150391 58.9703125 39.72910156 57.89453125 39.20117188 C55.99275169 38.2678679 54.09521177 37.32584771 52.203125 36.37304688 C37.49469571 29.19902738 27.48521865 34.68628439 13.375 41.375 Z " fill="#007CFE" transform="translate(119,388.8125)"/>
<path d="M0 0 C1.40511841 -0.01522705 1.40511841 -0.01522705 2.83862305 -0.03076172 C3.72590088 -0.01932129 4.61317871 -0.00788086 5.52734375 0.00390625 C6.327771 0.01365479 7.12819824 0.02340332 7.95288086 0.03344727 C10.55737673 0.53228313 11.37560556 1.44294078 13.0625 3.4375 C14.28215713 4.51090274 15.51147574 5.5734228 16.75 6.625 C17.37261719 7.15480469 17.99523437 7.68460937 18.63671875 8.23046875 C19.10722656 8.62878906 19.57773437 9.02710938 20.0625 9.4375 C20.206875 8.303125 20.35125 7.16875 20.5 6 C21.0625 2.4375 21.0625 2.4375 22.0625 1.4375 C24.39583333 1.4375 26.72916667 1.4375 29.0625 1.4375 C30.0525 1.1075 31.0425 0.7775 32.0625 0.4375 C33.79574119 0.52211492 35.52642812 0.67354355 37.25 0.875 C38.15105469 0.97683594 39.05210937 1.07867187 39.98046875 1.18359375 C40.66753906 1.26738281 41.35460937 1.35117187 42.0625 1.4375 C42.24065592 11.47856846 42.40651468 21.519761 42.55727577 31.56128025 C42.6276764 36.22546402 42.70209102 40.88950729 42.78613281 45.5534668 C42.86729402 50.06618293 42.93731885 54.57895453 43.00007248 59.09196281 C43.0257179 60.80172889 43.0551742 62.51144279 43.08876419 64.22107124 C43.6572888 93.58604491 43.6572888 93.58604491 36.0625 105.4375 C35.4025 106.46875 34.7425 107.5 34.0625 108.5625 C29.28870565 113.93686847 19.87812137 120.07529173 12.70922852 120.61450195 C-4.40056041 120.9933109 -17.16976258 120.59238215 -30.9375 109.4375 C-31.52015625 108.96828125 -32.1028125 108.4990625 -32.703125 108.015625 C-34.125 106.75 -34.125 106.75 -35.9375 104.4375 C-36 102.25 -36 102.25 -34.9375 100.4375 C-32.875 99.1875 -32.875 99.1875 -30.9375 98.4375 C-30.9375 97.7775 -30.9375 97.1175 -30.9375 96.4375 C-29.29296875 94.74609375 -29.29296875 94.74609375 -27.125 92.875 C-26.06345703 91.94494141 -26.06345703 91.94494141 -24.98046875 90.99609375 C-22.9375 89.4375 -22.9375 89.4375 -19.9375 88.4375 C-19.586875 89.159375 -19.23625 89.88125 -18.875 90.625 C-14.95552257 96.31456401 -9.70069794 99.15482453 -2.9375 100.4375 C3.1706107 101.05604286 8.65618884 100.51456146 14.0625 97.4375 C18.52294306 92.97705694 20.16801576 88.85021597 20.1875 82.625 C20.15561538 81.22890897 20.11722088 79.83288254 20.0625 78.4375 C19.42183594 78.84742188 18.78117188 79.25734375 18.12109375 79.6796875 C8.61096292 85.6040313 0.17202776 88.16711831 -10.99609375 85.78515625 C-20.9780251 82.82236643 -28.18519086 77.73453731 -33.66015625 68.83203125 C-35.79359493 64.83264925 -37.49311203 60.7312715 -38.9375 56.4375 C-39.32035156 55.37917969 -39.70320312 54.32085938 -40.09765625 53.23046875 C-41.14172553 48.51516049 -40.74761477 44.62103953 -40.125 39.875 C-40.02896484 39.05064453 -39.93292969 38.22628906 -39.83398438 37.37695312 C-39.31768395 33.04210862 -38.69710924 28.73730643 -37.9375 24.4375 C-37.2775 24.4375 -36.6175 24.4375 -35.9375 24.4375 C-35.82535156 23.70402344 -35.71320312 22.97054688 -35.59765625 22.21484375 C-33.9386114 15.23507519 -28.95248206 9.64199918 -23.08984375 5.72265625 C-22.02443359 5.08650391 -22.02443359 5.08650391 -20.9375 4.4375 C-19.94943359 3.81681641 -19.94943359 3.81681641 -18.94140625 3.18359375 C-12.85955459 0.07220084 -6.6926622 0.05319272 0 0 Z M-13.9375 27.4375 C-18.57884879 36.72019758 -19.14741577 45.30334806 -15.91015625 55.10546875 C-13.88790954 59.95398796 -11.30414701 62.6490498 -6.6875 65.3125 C-0.64423767 67.1254787 4.47022292 67.44207481 10.3125 64.8125 C16.26383861 61.44560724 19.22596912 57.02645727 21.0625 50.4375 C22.13048499 40.65177708 20.85733922 32.39187343 14.8125 24.5 C5.11623894 17.22780421 -5.93939386 17.66203693 -13.9375 27.4375 Z " fill="#090A0A" transform="translate(837.9375,471.5625)"/>
<path d="M0 0 C7.48418588 6.10514203 11.79003435 13.57133701 12.78515625 23.22265625 C12.88415297 24.70085722 12.97335155 26.17993375 13.03515625 27.66015625 C10.49403393 27.99816777 7.95238879 28.33069004 5.41015625 28.66015625 C4.69730469 28.75554687 3.98445313 28.8509375 3.25 28.94921875 C-0.85305984 29.47621726 -4.81730117 29.76482609 -8.96484375 29.66015625 C-9.135 29.06847656 -9.30515625 28.47679687 -9.48046875 27.8671875 C-11.55032699 21.08395039 -11.55032699 21.08395039 -15.96484375 15.66015625 C-21.79227199 12.71189216 -26.65691853 12.1090271 -32.96484375 13.66015625 C-36.29157438 15.38512769 -38.34311942 16.714054 -40.40234375 19.84765625 C-41.20789027 23.87538884 -41.29907724 27.74461676 -39.96484375 31.66015625 C-36.00939816 36.79986698 -31.26376194 38.43967523 -25.33984375 40.47265625 C-24.48132813 40.78396484 -23.6228125 41.09527344 -22.73828125 41.41601562 C-17.96964948 43.14662127 -17.96964948 43.14662127 -12.96484375 43.66015625 C-12.96484375 44.32015625 -12.96484375 44.98015625 -12.96484375 45.66015625 C-12.23265625 45.77746094 -11.50046875 45.89476562 -10.74609375 46.015625 C-3.52866006 47.68820444 3.94046842 52.51812451 8.03515625 58.66015625 C9.52015625 59.65015625 9.52015625 59.65015625 11.03515625 60.66015625 C11.03515625 61.65015625 11.03515625 62.64015625 11.03515625 63.66015625 C11.34839844 64.41167969 11.66164063 65.16320312 11.984375 65.9375 C15.49337308 75.02958796 14.60803244 85.74651012 11.03515625 94.66015625 C7.10128879 102.25546268 1.64263093 107.72366328 -5.96484375 111.66015625 C-8.96824682 112.58324115 -11.86039043 113.11810884 -14.96484375 113.66015625 C-15.29484375 114.32015625 -15.62484375 114.98015625 -15.96484375 115.66015625 C-31.22693611 116.2372942 -45.24450512 115.16545255 -57.21484375 104.69140625 C-63.07341679 98.74667772 -66.96484375 91.15487575 -66.96484375 82.66015625 C-63.69496076 81.98877004 -60.42379326 81.32386362 -57.15234375 80.66015625 C-56.22357422 80.469375 -55.29480469 80.27859375 -54.33789062 80.08203125 C-53.44521484 79.9015625 -52.55253906 79.72109375 -51.6328125 79.53515625 C-50.81063232 79.36757813 -49.98845215 79.2 -49.14135742 79.02734375 C-46.96484375 78.66015625 -46.96484375 78.66015625 -43.96484375 78.66015625 C-43.73410156 79.335625 -43.50335938 80.01109375 -43.265625 80.70703125 C-40.70591856 87.90233627 -40.70591856 87.90233627 -34.96484375 92.66015625 C-27.45968824 95.45868881 -21.28687859 94.4610041 -13.96484375 91.41015625 C-11.18086418 88.97417412 -10.6390622 87.3009359 -9.96484375 83.66015625 C-10.04801767 78.94419505 -10.39780977 73.69406679 -12.96484375 69.66015625 C-15.91509285 68.34330348 -15.91509285 68.34330348 -18.96484375 67.66015625 C-19.95484375 67.16515625 -19.95484375 67.16515625 -20.96484375 66.66015625 C-25.58980584 64.72481804 -30.25755625 62.90647991 -34.97265625 61.203125 C-36.02235596 60.82063599 -36.02235596 60.82063599 -37.09326172 60.43041992 C-38.47786832 59.92772328 -39.86484076 59.43148242 -41.25439453 58.94262695 C-45.6045591 57.35767077 -49.17577539 55.38164769 -52.96484375 52.66015625 C-54.23328125 51.79390625 -54.23328125 51.79390625 -55.52734375 50.91015625 C-61.57806851 45.32487185 -64.28877942 38.80914596 -64.96484375 30.66015625 C-65.09868764 18.96554677 -61.4623386 10.27456578 -53.390625 1.859375 C-39.1444861 -11.05620664 -15.28250316 -10.96998022 0 0 Z " fill="#0A0A0B" transform="translate(364.96484375,444.33984375)"/>
<path d="M0 0 C0.87454834 0.00523682 1.74909668 0.01047363 2.65014648 0.01586914 C3.59438477 0.0190918 4.53862305 0.02231445 5.51147461 0.02563477 C6.50469727 0.03401367 7.49791992 0.04239258 8.52124023 0.05102539 C9.51833008 0.05553711 10.51541992 0.06004883 11.54272461 0.06469727 C14.01478872 0.07652532 16.48673541 0.0930069 18.95874023 0.11352539 C20.15070432 2.49745357 20.08556687 3.95982839 20.08813477 6.61987305 C20.09128693 7.55489655 20.09443909 8.48992004 20.09768677 9.45327759 C20.09566254 10.46779999 20.09363831 11.48232239 20.09155273 12.52758789 C20.09298782 14.0929982 20.09298782 14.0929982 20.0944519 15.69003296 C20.0951336 17.90427714 20.09328006 20.11852331 20.08911133 22.33276367 C20.08379509 25.70374118 20.08903996 29.07458348 20.09545898 32.44555664 C20.09479757 34.59790068 20.0935151 36.75024464 20.09155273 38.90258789 C20.09357697 39.9049649 20.0956012 40.90734192 20.09768677 41.94009399 C20.07956288 47.42491541 19.76743061 52.68718886 18.95874023 58.11352539 C20.44374023 58.60852539 20.44374023 58.60852539 21.95874023 59.11352539 C21.95874023 60.10352539 21.95874023 61.09352539 21.95874023 62.11352539 C26.2893777 57.33448404 30.50992755 52.48914775 34.58374023 47.48852539 C35.33397461 46.57071289 36.08420898 45.65290039 36.85717773 44.70727539 C38.14759092 43.11464648 39.42646 41.51247375 40.68530273 39.89477539 C43.66962237 36.16054979 45.24303444 34.67413377 49.95874023 34.11352539 C52.43593663 33.99659955 54.91631732 33.93851241 57.39624023 33.92602539 C58.67370117 33.9118457 59.95116211 33.89766602 61.26733398 33.88305664 C64.86155995 34.10745805 67.62070982 34.80823683 70.95874023 36.11352539 C70.19561523 37.00040039 69.43249023 37.88727539 68.64624023 38.80102539 C60.64159705 48.14606873 52.65391362 57.51059027 44.95874023 67.11352539 C44.33999023 67.77223633 43.72124023 68.43094727 43.08374023 69.10961914 C41.67736591 71.08767997 41.67736591 71.08767997 42.49780273 73.44165039 C44.28003021 76.70112524 46.24520238 79.79564198 48.33374023 82.86352539 C48.76710693 83.50749268 49.20047363 84.15145996 49.64697266 84.81494141 C53.59403289 90.64847967 57.65518543 96.40211403 61.7590332 102.1262207 C70.95874023 115.01518207 70.95874023 115.01518207 70.95874023 118.11352539 C64.89754031 118.62313945 58.86229038 118.90753155 52.77905273 118.76196289 C51.2749585 118.72981689 51.2749585 118.72981689 49.74047852 118.69702148 C46.20641936 117.95571892 44.74359879 116.56684793 42.33374023 113.92602539 C41.53782072 112.35892998 40.74857518 110.78738105 40.02026367 109.18774414 C37.62444864 104.50631716 34.42027733 100.26185863 31.45874023 95.92602539 C30.21581698 94.05975586 28.97597736 92.19142702 27.73999023 90.32055664 C27.20438477 89.51078369 26.6687793 88.70101074 26.11694336 87.86669922 C25.73473633 87.28815186 25.3525293 86.70960449 24.95874023 86.11352539 C21.86789938 88.89333824 20.17324166 90.64582845 19.56225586 94.82641602 C19.5030462 98.01761257 19.57240229 101.1747323 19.70874023 104.36352539 C19.76977367 106.53529846 19.82724975 108.70717537 19.88061523 110.87915039 C19.91767578 111.83595703 19.95473633 112.79276367 19.99291992 113.77856445 C19.95874023 116.11352539 19.95874023 116.11352539 18.95874023 118.11352539 C13.34874023 117.78352539 7.73874023 117.45352539 1.95874023 117.11352539 C1.95874023 117.77352539 1.95874023 118.43352539 1.95874023 119.11352539 C0.63874023 119.11352539 -0.68125977 119.11352539 -2.04125977 119.11352539 C-3.10979151 105.8274032 -3.18818085 92.59608671 -3.17407227 79.27368164 C-3.17474719 77.01207977 -3.17571879 74.75047797 -3.17697144 72.48887634 C-3.17843499 67.78668516 -3.17633436 63.08451315 -3.17163086 58.38232422 C-3.1658848 52.34290354 -3.16925152 46.30352684 -3.17520332 40.2641077 C-3.1788034 35.61205203 -3.17767377 30.96000695 -3.17507553 26.30795097 C-3.17440727 24.07869906 -3.1752312 21.84944619 -3.17755508 19.62019539 C-3.18007779 16.52557918 -3.17624874 13.43103647 -3.1706543 10.33642578 C-3.17267853 9.41138245 -3.17470276 8.48633911 -3.17678833 7.53326416 C-3.15198466 0.17529875 -3.15198466 0.17529875 0 0 Z " fill="#090A0A" transform="translate(390.041259765625,437.886474609375)"/>
<path d="M0 0 C10.99771199 11.03984881 12.0390625 25.21784559 12.0390625 40.046875 C-7.1009375 40.046875 -26.2409375 40.046875 -45.9609375 40.046875 C-45.9609375 41.696875 -45.9609375 43.346875 -45.9609375 45.046875 C-44.9709375 45.046875 -43.9809375 45.046875 -42.9609375 45.046875 C-43.2909375 46.036875 -43.6209375 47.026875 -43.9609375 48.046875 C-41.74842098 52.81229521 -40.03594892 56.1032536 -34.9609375 58.046875 C-27.78265525 59.51229785 -21.56598231 59.41119096 -14.9609375 56.046875 C-12.03936539 53.70961731 -11.14517612 52.59959087 -9.9609375 49.046875 C-6.9909375 49.046875 -4.0209375 49.046875 -0.9609375 49.046875 C-0.9609375 48.386875 -0.9609375 47.726875 -0.9609375 47.046875 C2.9990625 47.706875 6.9590625 48.366875 11.0390625 49.046875 C9.55139997 57.97285017 5.31191492 66.07764292 -2.078125 71.640625 C-12.66498087 78.54068441 -24.93172947 80.90305365 -37.32421875 78.35546875 C-44.26125971 76.4431818 -49.72984437 74.01237179 -54.9609375 69.046875 C-55.57582031 68.47195313 -56.19070313 67.89703125 -56.82421875 67.3046875 C-66.96810229 56.83498329 -68.45204852 43.78233462 -68.23828125 29.9296875 C-67.7513841 17.41570401 -62.64895015 7.35630158 -53.7734375 -1.265625 C-38.5129607 -14.18427483 -14.91467704 -12.33227713 0 0 Z M-38.9609375 11.046875 C-43.11727349 15.6650261 -44.9609375 18.74129147 -44.9609375 25.046875 C-33.4109375 25.046875 -21.8609375 25.046875 -9.9609375 25.046875 C-11.07946157 18.3357306 -12.52776453 15.19038452 -17.5859375 10.734375 C-24.3279542 7.36336665 -32.52539433 6.53649432 -38.9609375 11.046875 Z " fill="#0A0A0A" transform="translate(720.9609375,480.953125)"/>
<path d="M0 0 C10.04029397 9.71268361 12.49726346 22.37697245 13.0546875 35.79296875 C13.03515625 38.96875 13.03515625 38.96875 12.03515625 39.96875 C10.3276825 40.0813676 8.61564216 40.12553433 6.90454102 40.14233398 C5.80993057 40.15582382 4.71532013 40.16931366 3.58753967 40.18321228 C2.39591721 40.19365067 1.20429474 40.20408905 -0.0234375 40.21484375 C-2.51758171 40.24777613 -5.01172225 40.28098788 -7.50585938 40.31445312 C-11.46066803 40.36195316 -15.41546112 40.40637994 -19.37036133 40.44555664 C-23.17154659 40.48512517 -26.97242124 40.53670349 -30.7734375 40.58984375 C-31.96303574 40.5982579 -33.15263397 40.60667206 -34.37828064 40.61534119 C-35.47604324 40.63198318 -36.57380585 40.64862518 -37.70483398 40.66577148 C-39.15925148 40.68123268 -39.15925148 40.68123268 -40.64305115 40.69700623 C-43.15755867 40.74805573 -43.15755867 40.74805573 -44.96484375 42.96875 C-43.32601554 49.5671899 -41.70364045 53.18114418 -35.96484375 56.96875 C-30.95496547 59.81219443 -25.26451843 59.71233866 -19.74609375 58.46875 C-15.14322173 56.95735919 -12.64407384 55.14834894 -9.96484375 50.96875 C-9.46984375 49.97875 -9.46984375 49.97875 -8.96484375 48.96875 C-2.36484375 48.96875 4.23515625 48.96875 11.03515625 48.96875 C12.03515625 50.96875 12.03515625 50.96875 11.57421875 53 C7.82279923 63.13203906 0.81662137 71.22369884 -8.96484375 75.96875 C-19.91212656 80.4370287 -32.01406024 80.13004773 -42.96484375 75.96875 C-53.01569096 71.11965705 -59.99148166 64.69486611 -64.734375 54.53515625 C-69.49106699 40.74829979 -69.17897313 24.63085402 -63.21484375 11.27734375 C-57.95769034 1.56803854 -50.36071216 -5.03119773 -39.83984375 -8.50390625 C-25.70397395 -12.47961963 -11.17909998 -9.30605854 0 0 Z M-42.765625 15.859375 C-44.49010854 18.59292477 -44.49010854 18.59292477 -44.96484375 24.96875 C-33.08484375 24.96875 -21.20484375 24.96875 -8.96484375 24.96875 C-10.79689781 16.32736901 -10.79689781 16.32736901 -15.90234375 11.40625 C-16.57136719 10.95121094 -17.24039063 10.49617188 -17.9296875 10.02734375 C-27.54403056 5.02640907 -35.9619566 8.3592681 -42.765625 15.859375 Z " fill="#0A0A0A" transform="translate(958.96484375,481.03125)"/>
<path d="M0 0 C2.64 0.66 5.28 1.32 8 2 C8.33 1.34 8.66 0.68 9 0 C9 0.66 9 1.32 9 2 C11.475 1.505 11.475 1.505 14 1 C14.495 1.99 14.495 1.99 15 3 C14.09772109 5.65962001 13.12462946 8.22056117 12.0625 10.81640625 C11.40549014 12.46209919 10.74927087 14.10810792 10.09375 15.75439453 C9.74828125 16.61639465 9.4028125 17.47839478 9.046875 18.36651611 C7.34257848 22.65378769 5.70288558 26.96530078 4.0625 31.27734375 C3.73008301 32.14912262 3.39766602 33.02090149 3.05517578 33.9190979 C2.37659012 35.6987752 1.69836869 37.47859143 1.02050781 39.25854492 C0.00186854 41.93259487 -1.01855202 44.60596057 -2.0390625 47.27929688 C-2.37397705 48.15840729 -2.7088916 49.0375177 -3.05395508 49.94326782 C-3.72160017 51.69527053 -4.3906879 53.44672422 -5.0612793 55.19760132 C-6.74172502 59.60441784 -8.36998397 64.02182908 -9.91796875 68.47705078 C-10.22661865 69.35349747 -10.53526855 70.22994415 -10.85327148 71.13294983 C-11.43679312 72.79779559 -12.00857531 74.46681814 -12.56665039 76.1403656 C-14.48595517 81.58444228 -14.48595517 81.58444228 -16.86425781 83.50708008 C-19.45140112 84.1041814 -21.76417817 84.22484246 -24.421875 84.1953125 C-25.44667969 84.18886719 -26.47148438 84.18242188 -27.52734375 84.17578125 C-29.12255859 84.15064453 -29.12255859 84.15064453 -30.75 84.125 C-31.82894531 84.11597656 -32.90789063 84.10695313 -34.01953125 84.09765625 C-36.67991278 84.07411305 -39.33984336 84.04122799 -42 84 C-42.81381795 82.06305322 -43.62600916 80.12542289 -44.4375 78.1875 C-44.88996094 77.10855469 -45.34242188 76.02960938 -45.80859375 74.91796875 C-46.60375013 72.9704874 -47.33479648 70.99561057 -48 69 C-48.47511715 67.69066756 -48.95550492 66.38324257 -49.43945312 65.07714844 C-49.73094238 64.29000458 -50.02243164 63.50286072 -50.32275391 62.69186401 C-50.79720947 61.41353195 -50.79720947 61.41353195 -51.28125 60.109375 C-51.61108887 59.22017365 -51.94092773 58.33097229 -52.28076172 57.41482544 C-53.35295028 54.52621852 -54.42632415 51.63805441 -55.5 48.75 C-55.86182373 47.77613342 -56.22364746 46.80226685 -56.59643555 45.79888916 C-61.16173843 33.5181431 -65.76282312 21.25735003 -70.61132812 9.08496094 C-73 3.08478815 -73 3.08478815 -73 2 C-70.47932687 1.83054298 -67.95850616 1.66436516 -65.4375 1.5 C-64.73302734 1.45230469 -64.02855469 1.40460938 -63.30273438 1.35546875 C-58.85739865 1.0686729 -54.45455341 0.95317158 -50 1 C-47.1337013 7.14939493 -44.75431201 13.33752852 -42.65234375 19.78515625 C-42.35437393 20.68568222 -42.05640411 21.58620819 -41.74940491 22.51402283 C-40.80776985 25.36210738 -39.87230127 28.21216596 -38.9375 31.0625 C-37.99807476 33.91604341 -37.05731265 36.76913614 -36.11488342 39.62168884 C-35.53187929 41.38744463 -34.95073523 43.15381609 -34.37181091 44.9209137 C-32.69996885 49.99750916 -30.90930505 55.00767504 -29 60 C-28.64284912 58.95360352 -28.28569824 57.90720703 -27.91772461 56.82910156 C-14.84854711 18.54607145 -14.84854711 18.54607145 -9 2 C-6.03 2 -3.06 2 0 2 C0 1.34 0 0.68 0 0 Z " fill="#0A0A0A" transform="translate(640,472)"/>
<path d="M0 0 C0 38.94 0 77.88 0 118 C-5.94 117.67 -11.88 117.34 -18 117 C-18.495 117.99 -18.495 117.99 -19 119 C-19.99 118.67 -20.98 118.34 -22 118 C-22.33 79.39 -22.66 40.78 -23 1 C-16.13624657 -2.43187671 -7.67390962 0 0 0 Z " fill="#0B0B0B" transform="translate(561,438)"/>
<path d="M0 0 C0.98033203 -0.01224609 1.96066406 -0.02449219 2.97070312 -0.03710938 C3.90720703 -0.03904297 4.84371094 -0.04097656 5.80859375 -0.04296875 C6.67154053 -0.04707764 7.5344873 -0.05118652 8.42358398 -0.05541992 C10.5625 0.1875 10.5625 0.1875 12.5625 2.1875 C12.2325 3.1775 11.9025 4.1675 11.5625 5.1875 C11.46513075 8.10196382 11.42256412 10.99183119 11.4296875 13.90625 C11.42873077 14.76053589 11.42777405 15.61482178 11.42678833 16.49499512 C11.42610807 18.30053786 11.42795165 20.10608306 11.43212891 21.91162109 C11.43747932 24.67681364 11.43217873 27.44184376 11.42578125 30.20703125 C11.42644206 31.96093786 11.42772328 33.71484437 11.4296875 35.46875 C11.42766327 36.29693237 11.42563904 37.12511475 11.42355347 37.97839355 C11.43713684 41.30037382 11.50467808 44.01403425 12.5625 47.1875 C11.9025 47.1875 11.2425 47.1875 10.5625 47.1875 C10.5625 48.1775 10.5625 49.1675 10.5625 50.1875 C11.2225 50.1875 11.8825 50.1875 12.5625 50.1875 C12.31693359 52.1041748 12.31693359 52.1041748 12.06640625 54.05957031 C11.50491359 59.13503817 11.45163224 64.13310241 11.5 69.234375 C11.50378662 70.16743469 11.50757324 71.10049438 11.51147461 72.06182861 C11.52763048 76.00872447 11.55570759 79.95551173 11.58300781 83.90234375 C11.65122343 94.71631399 11.70508096 105.41969459 10.5625 116.1875 C11.2225 116.5175 11.8825 116.8475 12.5625 117.1875 C9.5925 118.1775 9.5925 118.1775 6.5625 119.1875 C6.5625 118.5275 6.5625 117.8675 6.5625 117.1875 C0.6225 117.5175 -5.3175 117.8475 -11.4375 118.1875 C-11.46061949 102.94986887 -11.47847948 87.71223976 -11.48931217 72.47459507 C-11.494475 65.39996813 -11.50151744 58.32535226 -11.51293945 51.25073242 C-11.52394681 44.42971122 -11.52977618 37.60870156 -11.53237724 30.78767204 C-11.53423205 28.17883052 -11.5378537 25.56998967 -11.54323006 22.96115303 C-11.55043643 19.32117448 -11.55149111 15.68124425 -11.55102539 12.04125977 C-11.55462067 10.95081863 -11.55821594 9.8603775 -11.56192017 8.7368927 C-11.5605455 7.75106201 -11.55917084 6.76523132 -11.55775452 5.74952698 C-11.55867631 4.88765054 -11.5595981 4.0257741 -11.56054783 3.13778019 C-11.24145689 -1.91973888 -3.81687842 0.00249959 0 0 Z " fill="#0A0A0A" transform="translate(515.4375,437.8125)"/>
<path d="M0 0 C0.94875 0.165 1.8975 0.33 2.875 0.5 C11.13044322 1.7565627 11.13044322 1.7565627 19 0 C19.66 0.33 20.32 0.66 21 1 C21.4140625 3.28515625 21.4140625 3.28515625 21.625 6.0625 C21.69976563 6.98160156 21.77453125 7.90070313 21.8515625 8.84765625 C21.90054688 9.55792969 21.94953125 10.26820313 22 11 C22.721875 10.2575 23.44375 9.515 24.1875 8.75 C29.2471529 3.80278383 33.27839933 0.20470851 40.55078125 -0.1953125 C41.79214844 -0.17210937 43.03351562 -0.14890625 44.3125 -0.125 C47.6228125 -0.063125 47.6228125 -0.063125 51 0 C51 7.59 51 15.18 51 23 C48.2775 22.9071875 48.2775 22.9071875 45.5 22.8125 C38.49908469 22.82899214 33.78498886 23.77200891 28.1875 28.25 C17.45519619 41.74203907 21.89593121 66.50109385 22 83 C17.36430027 84.01237098 13.03759064 84.18349229 8.3125 84.1875 C7.54099609 84.19974609 6.76949219 84.21199219 5.97460938 84.22460938 C3.98167293 84.22983104 1.98916662 84.1226341 0 84 C-0.66 83.34 -1.32 82.68 -2 82 C-1.34 82 -0.68 82 0 82 C-0.03029297 81.2464624 -0.06058594 80.4929248 -0.09179688 79.71655273 C-0.81567186 60.99742392 -1.10925799 42.29566816 -1.125 23.5625 C-1.12749756 22.50537811 -1.12999512 21.44825623 -1.13256836 20.35910034 C-1.13842636 17.3448351 -1.1369884 14.33067247 -1.1328125 11.31640625 C-1.13479645 10.40327667 -1.1367804 9.49014709 -1.13882446 8.54934692 C-1.13571259 7.71394379 -1.13260071 6.87854065 -1.12939453 6.01782227 C-1.12859894 5.2868483 -1.12780334 4.55587433 -1.12698364 3.80274963 C-1 2 -1 2 0 0 Z " fill="#090A0A" transform="translate(742,472)"/>
<path d="M0 0 C0.99 0.33 1.98 0.66 3 1 C7.654797 1.3053818 7.654797 1.3053818 12 0 C12 0.66 12 1.32 12 2 C14.31 2 16.62 2 19 2 C19.33 1.34 19.66 0.68 20 0 C22.50018412 2.50018412 22.23513727 3.97857297 22.24884033 7.38920593 C22.24164978 8.1394252 22.23445923 8.88964447 22.22705078 9.66259766 C22.22734283 10.45292892 22.22763489 11.24326019 22.22793579 12.05754089 C22.22653962 14.67649214 22.21096505 17.2951608 22.1953125 19.9140625 C22.19158339 21.72724248 22.18873594 23.54042447 22.18673706 25.35360718 C22.17909257 30.13107851 22.15943712 34.90842867 22.1373291 39.68585205 C22.1168882 44.55878052 22.10773911 49.43172853 22.09765625 54.3046875 C22.07619197 63.86984497 22.04204623 73.43491242 22 83 C15.03580586 85.32139805 7.34090518 84 0 84 C0 56.28 0 28.56 0 0 Z " fill="#0A0A0A" transform="translate(469,472)"/>
<path d="M0 0 C4.29411261 2.59267176 5.97017938 5.20473619 7.3125 10 C7.3125 15.34303145 6.01388827 18.18974737 2.3125 22 C-1.62196322 24.62297548 -4.99703088 25.064253 -9.6875 25 C-13.84905582 23.5081215 -17.11184055 21.62500219 -19.6875 18 C-21.06088826 13.43680676 -21.31356391 9.43802762 -19.125 5.125 C-13.86862229 -1.61394578 -7.95180666 -2.15642215 0 0 Z " fill="#0B0B0B" transform="translate(486.6875,438)"/>
<path d="M0 0 C1.69242399 2.95502601 2.27328801 5.09995022 2.25 8.5 C2.25515625 9.2528125 2.2603125 10.005625 2.265625 10.78125 C1.97250404 13.2296721 1.21816769 14.87304054 0 17 C-1.33257403 5.47835991 -1.33257403 5.47835991 0 0 Z " fill="#161C24" transform="translate(301,464)"/>
<path d="M0 0 C3.5371438 0.56132934 4.99261679 1.69557747 7.25 4.4375 C8.03117188 5.36369141 8.03117188 5.36369141 8.828125 6.30859375 C10 8 10 8 10 10 C6.54804233 8.5741914 4.8985744 6.90253666 2.75 3.875 C1.96882812 2.78832031 1.96882812 2.78832031 1.171875 1.6796875 C0.78515625 1.12539063 0.3984375 0.57109375 0 0 Z " fill="#0F0F0F" transform="translate(955,480)"/>
<path d="M0 0 C0.99 0.495 0.99 0.495 2 1 C1.01 1.495 1.01 1.495 0 2 C0 1.34 0 0.68 0 0 Z M-2 2 C-1.34 2.33 -0.68 2.66 0 3 C-0.350625 3.5775 -0.70125 4.155 -1.0625 4.75 C-2.14917407 7.35801776 -1.93065133 8.39417629 -1 11 C-2.32 10.01 -3.64 9.02 -5 8 C-4.42655063 5.13275314 -4.1385485 4.1385485 -2 2 Z " fill="#171717" transform="translate(807,568)"/>
<path d="M0 0 C0.66 0 1.32 0 2 0 C3.47075246 4.41225737 4.36884358 7.48281619 3 12 C1.11904702 8.82589184 0.90643383 6.6490807 1 3 C0.67 2.01 0.34 1.02 0 0 Z " fill="#111111" transform="translate(490,443)"/>
<path d="M0 0 C0.99 0.33 1.98 0.66 3 1 C3.33 2.98 3.66 4.96 4 7 C3.01 6.67 2.02 6.34 1 6 C-0.1875 3.4375 -0.1875 3.4375 -1 1 C-0.67 0.67 -0.34 0.34 0 0 Z " fill="#171717" transform="translate(760,472)"/>
<path d="M0 0 C0.33 0 0.66 0 1 0 C1 2.31 1 4.62 1 7 C0.67 7 0.34 7 0 7 C0 4.69 0 2.38 0 0 Z " fill="#212222" transform="translate(537,527)"/>
<path d="M0 0 C1.98 0 3.96 0 6 0 C6 0.33 6 0.66 6 1 C4.02 1 2.04 1 0 1 C0 0.67 0 0.34 0 0 Z " fill="#272727" transform="translate(956,528)"/>
<path d="M0 0 C4 1 4 1 4 1 Z " fill="#272728" transform="translate(836,559)"/>
<path d="M0 0 C0.66 0.66 1.32 1.32 2 2 C1.01 2.495 1.01 2.495 0 3 C0 2.01 0 1.02 0 0 Z " fill="#2A2C2C" transform="translate(824,557)"/>
<path d="M0 0 C0.33 0.99 0.66 1.98 1 3 C0.34 2.67 -0.32 2.34 -1 2 C-0.67 1.34 -0.34 0.68 0 0 Z " fill="#2E2E2F" transform="translate(537,552)"/>
<path d="M0 0 C1 4 1 4 1 4 Z " fill="#201F1F" transform="translate(537,506)"/>
<path d="M0 0 C0.66 0 1.32 0 2 0 C1.67 0.66 1.34 1.32 1 2 C0.67 1.34 0.34 0.68 0 0 Z " fill="#333235" transform="translate(674,557)"/>
<path d="" fill="#2E3135" transform="translate(0,0)"/>
<path d="M0 0 C0.33 0.66 0.66 1.32 1 2 C0.34 1.67 -0.32 1.34 -1 1 C-0.67 0.67 -0.34 0.34 0 0 Z " fill="#292828" transform="translate(857,550)"/>
<path d="" fill="#262525" transform="translate(0,0)"/>
<path d="" fill="#232222" transform="translate(0,0)"/>
<path d="" fill="#222221" transform="translate(0,0)"/>
<path d="" fill="#242525" transform="translate(0,0)"/>
<path d="" fill="#1F1E1F" transform="translate(0,0)"/>
<path d="" fill="#1F201F" transform="translate(0,0)"/>
<path d="" fill="#212120" transform="translate(0,0)"/>
<path d="" fill="#212222" transform="translate(0,0)"/>
<path d="" fill="#222222" transform="translate(0,0)"/>
<path d="M0 0 C0.33 0.66 0.66 1.32 1 2 C0.34 1.67 -0.32 1.34 -1 1 C-0.67 0.67 -0.34 0.34 0 0 Z " fill="#313233" transform="translate(912,473)"/>
<path d="M0 0 C3 1 3 1 3 1 Z " fill="#2E2E2F" transform="translate(644,472)"/>
<path d="" fill="#232322" transform="translate(0,0)"/>
<path d="M0 0 C2 1 2 1 2 1 Z " fill="#1987F5" transform="translate(200,607)"/>
<path d="M0 0 C2 1 2 1 2 1 Z " fill="#1886F6" transform="translate(192,607)"/>
<path d="M0 0 C2 1 2 1 2 1 Z " fill="#1687F7" transform="translate(160,607)"/>
<path d="M0 0 C2 1 2 1 2 1 Z " fill="#1789F5" transform="translate(149,607)"/>
<path d="M0 0 C2 1 2 1 2 1 Z " fill="#1888F7" transform="translate(144,607)"/>
<path d="M0 0 C2 1 2 1 2 1 Z " fill="#1888F5" transform="translate(128,607)"/>
<path d="M0 0 C2 1 2 1 2 1 Z " fill="#343436" transform="translate(817,589)"/>
<path d="M0 0 C2 1 2 1 2 1 Z " fill="#262627" transform="translate(704,536)"/>
<path d="" fill="#232423" transform="translate(0,0)"/>
<path d="" fill="#222221" transform="translate(0,0)"/>
<path d="M0 0 C2 1 2 1 2 1 Z " fill="#2E2F2F" transform="translate(967,528)"/>
<path d="M0 0 C2 1 2 1 2 1 Z " fill="#252526" transform="translate(952,528)"/>
<path d="M0 0 C2 1 2 1 2 1 Z " fill="#272929" transform="translate(728,528)"/>
<path d="" fill="#242524" transform="translate(0,0)"/>
<path d="" fill="#232222" transform="translate(0,0)"/>
<path d="" fill="#202120" transform="translate(0,0)"/>
<path d="" fill="#212222" transform="translate(0,0)"/>
<path d="" fill="#1F1E1E" transform="translate(0,0)"/>
<path d="M0 0 C2 1 2 1 2 1 Z " fill="#232222" transform="translate(677,504)"/>
<path d="" fill="#201F1F" transform="translate(0,0)"/>
<path d="M0 0 C2 1 2 1 2 1 Z " fill="#242425" transform="translate(848,495)"/>
<path d="M0 0 C2 1 2 1 2 1 Z " fill="#252627" transform="translate(788,495)"/>
<path d="M0 0 C2 1 2 1 2 1 Z " fill="#252525" transform="translate(838,492)"/>
<path d="" fill="#20201F" transform="translate(0,0)"/>
<path d="" fill="#324661" transform="translate(0,0)"/>
<path d="" fill="#222422" transform="translate(0,0)"/>
<path d="M0 0 C2 1 2 1 2 1 Z " fill="#2A2B2C" transform="translate(585,472)"/>
<path d="" fill="#222121" transform="translate(0,0)"/>
<path d="" fill="#27292C" transform="translate(0,0)"/>
<path d="" fill="#2C2C2C" transform="translate(0,0)"/>
<path d="" fill="#2A2A28" transform="translate(0,0)"/>
<path d="" fill="#2B2C2F" transform="translate(0,0)"/>
<path d="" fill="#313131" transform="translate(0,0)"/>
<path d="M0 0 C2 1 2 1 2 1 Z " fill="#3B4A5F" transform="translate(317,440)"/>
<path d="" fill="#3C3D3F" transform="translate(0,0)"/>
<path d="" fill="#1B88F5" transform="translate(0,0)"/>
<path d="" fill="#1B87F5" transform="translate(0,0)"/>
<path d="" fill="#1A87F6" transform="translate(0,0)"/>
<path d="" fill="#1786F7" transform="translate(0,0)"/>
<path d="" fill="#1986F5" transform="translate(0,0)"/>
<path d="" fill="#1A88F6" transform="translate(0,0)"/>
<path d="" fill="#1886F6" transform="translate(0,0)"/>
<path d="" fill="#1885F5" transform="translate(0,0)"/>
<path d="" fill="#1887F6" transform="translate(0,0)"/>
<path d="" fill="#1A88F7" transform="translate(0,0)"/>
<path d="" fill="#34373A" transform="translate(0,0)"/>
<path d="" fill="#353637" transform="translate(0,0)"/>
<path d="" fill="#343435" transform="translate(0,0)"/>
<path d="" fill="#2B2D2B" transform="translate(0,0)"/>
<path d="" fill="#2E2C2F" transform="translate(0,0)"/>
<path d="" fill="#2C2D2B" transform="translate(0,0)"/>
<path d="" fill="#2F3232" transform="translate(0,0)"/>
<path d="" fill="#28282B" transform="translate(0,0)"/>
<path d="" fill="#2F2E2F" transform="translate(0,0)"/>
<path d="" fill="#2F3233" transform="translate(0,0)"/>
<path d="" fill="#32363D" transform="translate(0,0)"/>
<path d="" fill="#272929" transform="translate(0,0)"/>
<path d="" fill="#2A2B2C" transform="translate(0,0)"/>
<path d="" fill="#303032" transform="translate(0,0)"/>
<path d="" fill="#29282A" transform="translate(0,0)"/>
<path d="" fill="#333532" transform="translate(0,0)"/>
<path d="" fill="#30363C" transform="translate(0,0)"/>
<path d="" fill="#303133" transform="translate(0,0)"/>
<path d="" fill="#323233" transform="translate(0,0)"/>
<path d="" fill="#323435" transform="translate(0,0)"/>
<path d="" fill="#30343C" transform="translate(0,0)"/>
<path d="" fill="#252725" transform="translate(0,0)"/>
<path d="" fill="#374656" transform="translate(0,0)"/>
<path d="" fill="#354257" transform="translate(0,0)"/>
<path d="" fill="#323233" transform="translate(0,0)"/>
<path d="" fill="#2D2D2F" transform="translate(0,0)"/>
<path d="" fill="#354358" transform="translate(0,0)"/>
<path d="" fill="#2D2E2D" transform="translate(0,0)"/>
<path d="" fill="#272C2C" transform="translate(0,0)"/>
<path d="" fill="#2D2F31" transform="translate(0,0)"/>
<path d="" fill="#2A2A2E" transform="translate(0,0)"/>
<path d="" fill="#292E2E" transform="translate(0,0)"/>
<path d="" fill="#2D2D2D" transform="translate(0,0)"/>
<path d="" fill="#2B2B2B" transform="translate(0,0)"/>
<path d="" fill="#2A2A2A" transform="translate(0,0)"/>
<path d="" fill="#36465D" transform="translate(0,0)"/>
<path d="" fill="#364A68" transform="translate(0,0)"/>
<path d="" fill="#282628" transform="translate(0,0)"/>
<path d="" fill="#292729" transform="translate(0,0)"/>
<path d="" fill="#2A2A2A" transform="translate(0,0)"/>
<path d="" fill="#272829" transform="translate(0,0)"/>
<path d="" fill="#262527" transform="translate(0,0)"/>
<path d="" fill="#282828" transform="translate(0,0)"/>
<path d="" fill="#242724" transform="translate(0,0)"/>
<path d="" fill="#282828" transform="translate(0,0)"/>
<path d="" fill="#242729" transform="translate(0,0)"/>
<path d="" fill="#262529" transform="translate(0,0)"/>
<path d="" fill="#252626" transform="translate(0,0)"/>
<path d="" fill="#272827" transform="translate(0,0)"/>
<path d="" fill="#272628" transform="translate(0,0)"/>
<path d="" fill="#242324" transform="translate(0,0)"/>
<path d="" fill="#232423" transform="translate(0,0)"/>
<path d="" fill="#0E88FF" transform="translate(0,0)"/>
<path d="" fill="#262528" transform="translate(0,0)"/>
<path d="" fill="#252727" transform="translate(0,0)"/>
<path d="" fill="#212222" transform="translate(0,0)"/>
<path d="" fill="#252728" transform="translate(0,0)"/>
<path d="" fill="#353535" transform="translate(0,0)"/>
<path d="" fill="#232123" transform="translate(0,0)"/>
<path d="" fill="#262424" transform="translate(0,0)"/>
<path d="" fill="#242324" transform="translate(0,0)"/>
<path d="" fill="#262627" transform="translate(0,0)"/>
<path d="" fill="#252325" transform="translate(0,0)"/>
<path d="" fill="#262626" transform="translate(0,0)"/>
<path d="" fill="#242728" transform="translate(0,0)"/>
<path d="" fill="#262425" transform="translate(0,0)"/>
<path d="" fill="#242627" transform="translate(0,0)"/>
<path d="" fill="#303232" transform="translate(0,0)"/>
<path d="" fill="#252622" transform="translate(0,0)"/>
<path d="" fill="#252626" transform="translate(0,0)"/>
<path d="" fill="#282A2A" transform="translate(0,0)"/>
<path d="" fill="#232427" transform="translate(0,0)"/>
<path d="" fill="#242323" transform="translate(0,0)"/>
<path d="" fill="#202021" transform="translate(0,0)"/>
<path d="" fill="#232726" transform="translate(0,0)"/>
<path d="" fill="#252325" transform="translate(0,0)"/>
<path d="" fill="#242422" transform="translate(0,0)"/>
<path d="" fill="#232525" transform="translate(0,0)"/>
<path d="" fill="#242324" transform="translate(0,0)"/>
<path d="" fill="#2D3137" transform="translate(0,0)"/>
<path d="" fill="#2F3440" transform="translate(0,0)"/>
<path d="" fill="#333A4A" transform="translate(0,0)"/>
<path d="" fill="#242423" transform="translate(0,0)"/>
<path d="" fill="#21201F" transform="translate(0,0)"/>
<path d="" fill="#222426" transform="translate(0,0)"/>
<path d="" fill="#1F1F22" transform="translate(0,0)"/>
<path d="" fill="#212021" transform="translate(0,0)"/>
<path d="" fill="#252525" transform="translate(0,0)"/>
<path d="" fill="#222222" transform="translate(0,0)"/>
<path d="" fill="#222423" transform="translate(0,0)"/>
<path d="" fill="#202020" transform="translate(0,0)"/>
<path d="" fill="#242424" transform="translate(0,0)"/>
<path d="" fill="#222225" transform="translate(0,0)"/>
<path d="" fill="#1D201F" transform="translate(0,0)"/>
<path d="" fill="#1F1E1F" transform="translate(0,0)"/>
<path d="" fill="#222322" transform="translate(0,0)"/>
<path d="" fill="#1F1F1E" transform="translate(0,0)"/>
<path d="" fill="#232424" transform="translate(0,0)"/>
<path d="" fill="#242424" transform="translate(0,0)"/>
<path d="" fill="#201F1E" transform="translate(0,0)"/>
<path d="" fill="#232123" transform="translate(0,0)"/>
<path d="" fill="#262527" transform="translate(0,0)"/>
<path d="" fill="#242422" transform="translate(0,0)"/>
<path d="" fill="#232424" transform="translate(0,0)"/>
<path d="" fill="#262525" transform="translate(0,0)"/>
<path d="" fill="#252426" transform="translate(0,0)"/>
<path d="" fill="#2C3444" transform="translate(0,0)"/>
<path d="" fill="#242727" transform="translate(0,0)"/>
<path d="" fill="#242426" transform="translate(0,0)"/>
<path d="" fill="#343535" transform="translate(0,0)"/>
<path d="" fill="#1E1E1F" transform="translate(0,0)"/>
<path d="" fill="#242323" transform="translate(0,0)"/>
<path d="" fill="#26282A" transform="translate(0,0)"/>
<path d="" fill="#2A2D2D" transform="translate(0,0)"/>
<path d="" fill="#242324" transform="translate(0,0)"/>
<path d="" fill="#262627" transform="translate(0,0)"/>
<path d="" fill="#252526" transform="translate(0,0)"/>
<path d="" fill="#262829" transform="translate(0,0)"/>
<path d="" fill="#1E1E1F" transform="translate(0,0)"/>
<path d="" fill="#252828" transform="translate(0,0)"/>
<path d="" fill="#272425" transform="translate(0,0)"/>
<path d="" fill="#252726" transform="translate(0,0)"/>
<path d="" fill="#262827" transform="translate(0,0)"/>
<path d="" fill="#272727" transform="translate(0,0)"/>
<path d="" fill="#222223" transform="translate(0,0)"/>
<path d="" fill="#282827" transform="translate(0,0)"/>
<path d="" fill="#28282A" transform="translate(0,0)"/>
<path d="" fill="#333236" transform="translate(0,0)"/>
<path d="" fill="#252624" transform="translate(0,0)"/>
<path d="" fill="#1F1D1F" transform="translate(0,0)"/>
<path d="" fill="#2F435D" transform="translate(0,0)"/>
<path d="" fill="#2A2A2C" transform="translate(0,0)"/>
<path d="" fill="#1F201F" transform="translate(0,0)"/>
<path d="" fill="#34465D" transform="translate(0,0)"/>
<path d="" fill="#262527" transform="translate(0,0)"/>
<path d="" fill="#252627" transform="translate(0,0)"/>
<path d="" fill="#0E88FF" transform="translate(0,0)"/>
<path d="" fill="#2A2A2B" transform="translate(0,0)"/>
<path d="" fill="#242525" transform="translate(0,0)"/>
<path d="" fill="#2B2A2D" transform="translate(0,0)"/>
<path d="" fill="#2C2F30" transform="translate(0,0)"/>
<path d="" fill="#24282A" transform="translate(0,0)"/>
<path d="" fill="#354C6F" transform="translate(0,0)"/>
<path d="" fill="#2E2E2F" transform="translate(0,0)"/>
<path d="" fill="#2E3032" transform="translate(0,0)"/>
<path d="" fill="#272827" transform="translate(0,0)"/>
<path d="" fill="#25272A" transform="translate(0,0)"/>
<path d="" fill="#272A2C" transform="translate(0,0)"/>
<path d="" fill="#353739" transform="translate(0,0)"/>
<path d="" fill="#313334" transform="translate(0,0)"/>
<path d="" fill="#222321" transform="translate(0,0)"/>
<path d="" fill="#343235" transform="translate(0,0)"/>
<path d="" fill="#323334" transform="translate(0,0)"/>
<path d="" fill="#323534" transform="translate(0,0)"/>
<path d="" fill="#323436" transform="translate(0,0)"/>
<path d="" fill="#333336" transform="translate(0,0)"/>
<path d="" fill="#2C2E30" transform="translate(0,0)"/>
<path d="" fill="#27292C" transform="translate(0,0)"/>
<path d="" fill="#364E6F" transform="translate(0,0)"/>
<path d="" fill="#232423" transform="translate(0,0)"/>
<path d="" fill="#395273" transform="translate(0,0)"/>
<path d="" fill="#252526" transform="translate(0,0)"/>
<path d="" fill="#262625" transform="translate(0,0)"/>
<path d="" fill="#384E6D" transform="translate(0,0)"/>
<path d="" fill="#0D86FF" transform="translate(0,0)"/>
<path d="" fill="#2C3536" transform="translate(0,0)"/>
<path d="" fill="#0A85FD" transform="translate(0,0)"/>
<path d="" fill="#0D85FE" transform="translate(0,0)"/>
<path d="" fill="#2E2F2E" transform="translate(0,0)"/>
<path d="" fill="#323A3C" transform="translate(0,0)"/>
<path d="" fill="#37495F" transform="translate(0,0)"/>
<path d="" fill="#383D47" transform="translate(0,0)"/>
<path d="" fill="#3C454D" transform="translate(0,0)"/>
<path d="" fill="#3A3B3D" transform="translate(0,0)"/>
<path d="" fill="#3C4B5A" transform="translate(0,0)"/>
<path d="" fill="#3E4854" transform="translate(0,0)"/>
<path d="" fill="#3E4A54" transform="translate(0,0)"/>
<path d="" fill="#3F4C5C" transform="translate(0,0)"/>
<path d="" fill="#3B3F40" transform="translate(0,0)"/>
<path d="" fill="#2B88ED" transform="translate(0,0)"/>
</svg>
