<?xml version="1.0" encoding="UTF-8"?>
<svg version="1.1" xmlns="http://www.w3.org/2000/svg" width="1024" height="1024">
<path d="M0 0 C1.12192496 1.10745183 2.23314672 2.22581854 3.3352356 3.35301208 C3.94912643 3.96471252 4.56301727 4.57641296 5.19551086 5.20664978 C7.20773853 7.21657914 9.20536142 9.24036876 11.20291138 11.26487732 C12.60218286 12.66907536 14.00227069 14.07246034 15.40313721 15.47506714 C18.32914577 18.40869902 21.24858499 21.34865451 24.16287231 24.29393005 C27.90370591 28.07446529 31.65534587 31.84403497 35.41123772 35.60960484 C38.99117885 39.19950073 42.56613255 42.79434502 46.14041138 46.38987732 C46.8247311 47.07759279 47.50905083 47.76530827 48.21410751 48.4738636 C50.14135068 50.41264576 52.06505593 52.35486354 53.98757935 54.29832458 C54.56208328 54.87551743 55.13658722 55.45271027 55.72850037 56.0473938 C60.68688646 61.07383157 60.68688646 61.07383157 61.02322388 65.69847107 C60.77322388 69.26097107 60.77322388 69.26097107 59.55682373 70.95539856 C57.24722252 72.6459974 55.83521418 72.66443445 52.98562622 72.71263123 C52.01386444 72.73499847 51.04210266 72.75736572 50.04089355 72.78041077 C48.46593613 72.79012405 48.46593613 72.79012405 46.85916138 72.80003357 C45.77494904 72.81239044 44.69073669 72.82474731 43.57366943 72.83747864 C41.27549646 72.8570654 38.97723932 72.86828057 36.6789856 72.87181091 C33.18160355 72.8858372 29.68785067 72.95308248 26.19119263 73.02268982 C23.95553139 73.03509602 21.71984972 73.04431158 19.48416138 73.05003357 C18.44633514 73.0767514 17.40850891 73.10346924 16.3392334 73.1309967 C8.41417064 73.05776494 4.51240922 70.53114527 -1.22677612 65.26097107 C-4.84642928 62.84786896 -6.88261792 62.47117227 -11.22677612 62.26097107 C-14.3255406 63.02950407 -17.26586279 64.07257728 -20.22677612 65.26097107 C-20.22677612 65.92097107 -20.22677612 66.58097107 -20.22677612 67.26097107 C-20.70115112 67.69409607 -21.17552612 68.12722107 -21.66427612 68.57347107 C-23.70644882 70.77901758 -24.00895604 72.28409665 -24.22677612 75.26097107 C-23.78779078 77.33461991 -23.78779078 77.33461991 -22.22677612 79.26097107 C-19.74612657 80.62761113 -17.39296703 81.74480725 -14.78927612 82.82347107 C-13.61292603 83.32838074 -13.61292603 83.32838074 -12.41281128 83.8434906 C1.44907317 89.74561072 15.44379983 95.36359558 29.45291138 100.90550232 C56.78065938 111.82287943 56.78065938 111.82287943 63.77322388 125.26097107 C64.11095825 125.89647888 64.44869263 126.53198669 64.79666138 127.18675232 C68.18081593 134.68467273 67.71943189 143.1553217 65.33572388 150.88597107 C62.77187295 157.16921137 58.53035249 161.53414263 53.77322388 166.26097107 C52.94306763 167.12722107 52.11291138 167.99347107 51.25759888 168.88597107 C46.8022747 173.48501538 46.8022747 173.48501538 44.77322388 175.26097107 C44.11322388 175.26097107 43.45322388 175.26097107 42.77322388 175.26097107 C42.52572388 175.83847107 42.27822388 176.41597107 42.02322388 177.01097107 C40.59022399 179.59037086 38.98897711 181.32218699 36.77322388 183.26097107 C36.11322388 183.26097107 35.45322388 183.26097107 34.77322388 183.26097107 C34.52572388 183.83331482 34.27822388 184.40565857 34.02322388 184.99534607 C32.58006188 187.61107718 30.89106165 189.40870563 28.77322388 191.51097107 C28.07197388 192.21737732 27.37072388 192.92378357 26.64822388 193.65159607 C24.77322388 195.26097107 24.77322388 195.26097107 22.77322388 195.26097107 C22.44322388 196.25097107 22.11322388 197.24097107 21.77322388 198.26097107 C19.83572388 200.44847107 19.83572388 200.44847107 17.77322388 202.26097107 C17.11322388 202.26097107 16.45322388 202.26097107 15.77322388 202.26097107 C15.56697388 202.81784607 15.36072388 203.37472107 15.14822388 203.94847107 C13.60200861 206.54892401 11.70405092 208.10850033 9.35134888 209.97581482 C6.05821586 212.65759888 3.19769296 215.81527853 0.27322388 218.88597107 C-3.24859151 222.23169568 -5.48011519 224.12397805 -10.41427612 224.51097107 C-16.07343204 223.44674927 -20.4953124 218.35281761 -24.22677612 214.26097107 C-24.22677612 213.60097107 -24.22677612 212.94097107 -24.22677612 212.26097107 C-25.21677612 211.93097107 -26.20677612 211.60097107 -27.22677612 211.26097107 C-27.22677612 210.60097107 -27.22677612 209.94097107 -27.22677612 209.26097107 C-27.78365112 209.05472107 -28.34052612 208.84847107 -28.91427612 208.63597107 C-31.4793568 207.11078796 -32.92444115 205.27230952 -34.75802612 202.95237732 C-36.36795878 201.09838572 -38.09647539 199.58908062 -39.97677612 198.01097107 C-44.09592939 194.50696545 -47.61573291 190.60601999 -51.19161987 186.55784607 C-54.15012145 183.21888459 -57.12567217 180.10797411 -60.66427612 177.38597107 C-63.37663069 175.13670143 -65.43275439 172.70889738 -67.66818237 170.00315857 C-69.20663741 168.28348201 -70.798337 166.88273559 -72.60177612 165.44847107 C-73.46802612 164.72659607 -74.33427612 164.00472107 -75.22677612 163.26097107 C-75.22677612 162.60097107 -75.22677612 161.94097107 -75.22677612 161.26097107 C-76.09302612 160.88972107 -76.09302612 160.88972107 -76.97677612 160.51097107 C-79.55617592 159.07797118 -81.28799204 157.4767243 -83.22677612 155.26097107 C-83.22677612 154.60097107 -83.22677612 153.94097107 -83.22677612 153.26097107 C-83.88677612 153.26097107 -84.54677612 153.26097107 -85.22677612 153.26097107 C-87.22677612 150.26097107 -87.22677612 150.26097107 -87.28927612 146.76097107 C-86.22677612 143.26097107 -86.22677612 143.26097107 -83.18917847 141.5622406 C-79.02753167 139.96896224 -75.180059 139.84941794 -70.76583862 139.94065857 C-69.97583466 139.95049774 -69.18583069 139.96033691 -68.37188721 139.97047424 C-66.7094255 139.99769543 -65.0470839 140.03346779 -63.38497925 140.07737732 C-60.865155 140.13566161 -58.34875682 140.14083111 -55.82833862 140.14378357 C-47.42935958 140.26894875 -41.17151884 140.39762308 -34.83370972 146.57395935 C-34.30342163 147.13067322 -33.77313354 147.68738708 -33.22677612 148.26097107 C-32.23677612 148.92097107 -31.24677612 149.58097107 -30.22677612 150.26097107 C-30.22677612 150.92097107 -30.22677612 151.58097107 -30.22677612 152.26097107 C-22.20095304 156.43439907 -15.31758423 159.40970753 -6.22677612 157.26097107 C-3.52109986 155.43758054 -1.68948894 154.18639671 -0.22677612 151.26097107 C0.16496721 148.00086981 -0.18164346 145.37141894 -1.22677612 142.26097107 C-8.86890814 134.20094675 -21.69308521 130.27095035 -31.66427612 125.88597107 C-35.28963627 124.2777213 -38.91268889 122.66430818 -42.53536987 121.05003357 C-43.42306564 120.65475967 -44.31076141 120.25948578 -45.22535706 119.85223389 C-51.42104 117.08629202 -57.59584053 114.2790451 -63.74240112 111.40550232 C-64.5208287 111.04642792 -65.29925629 110.68735352 -66.10127258 110.31739807 C-76.02728413 105.63628892 -82.48305919 99.22277664 -87.22677612 89.26097107 C-89.60656317 81.83139201 -88.71164347 74.14135019 -85.22677612 67.26097107 C-81.12940009 60.43201101 -76.28481271 55.17877347 -70.27755737 50.05393982 C-67.10213603 47.27771431 -64.17849533 44.27056712 -61.22677612 41.26097107 C-60.33990112 40.39472107 -59.45302612 39.52847107 -58.53927612 38.63597107 C-56.1887531 36.30833652 -56.1887531 36.30833652 -54.22677612 33.69847107 C-52.10799005 31.11620054 -49.8547469 29.31207021 -47.22677612 27.26097107 C-44.40673291 24.58554546 -41.83138459 21.80952477 -39.35177612 18.82347107 C-36.7677305 15.76114451 -33.9683171 13.2188421 -30.89083862 10.66331482 C-27.66877235 7.94800545 -24.82919669 5.05772085 -22.28927612 1.69847107 C-19.44318395 -1.6650924 -16.23855574 -3.76558718 -12.28927612 -5.67652893 C-7.51921801 -5.82107615 -3.38921882 -3.12366819 0 0 Z " fill="#8857EE" transform="translate(173.22677612304688,392.73902893066406)"/>
<path d="M0 0 C1.93992661 1.43710851 3.82151204 2.91019763 5.66796875 4.46484375 C5.99796875 1.82484375 6.32796875 -0.81515625 6.66796875 -3.53515625 C12.93796875 -3.53515625 19.20796875 -3.53515625 25.66796875 -3.53515625 C26.49859433 12.14290159 26.80124524 27.776189 26.84521484 43.47463989 C26.85200863 45.66286545 26.86221936 47.85108327 26.87597656 50.03927612 C27.0796249 85.27613214 27.0796249 85.27613214 15.59375 97.80078125 C6.43312205 105.7164557 -3.34914467 108.8662525 -15.20703125 108.77734375 C-15.99787109 108.7717041 -16.78871094 108.76606445 -17.60351562 108.76025391 C-31.28512264 108.47639148 -41.36370155 102.56636217 -51.33203125 93.46484375 C-49.86153106 89.81671758 -47.92030854 88.1359158 -44.76953125 85.83984375 C-41.52392422 83.60105009 -41.52392422 83.60105009 -39.33203125 80.46484375 C-35.98633501 81.06440436 -34.15999765 82.22385562 -31.58203125 84.40234375 C-25.55359329 89.05763751 -18.92462012 90.3782379 -11.33203125 89.46484375 C-5.33721566 88.17736658 -1.2703351 86.35788792 2.66796875 81.46484375 C4.61977519 78.27530639 4.8907541 75.93068695 4.79296875 72.21484375 C4.77492188 71.3228125 4.756875 70.43078125 4.73828125 69.51171875 C4.71507812 68.83625 4.691875 68.16078125 4.66796875 67.46484375 C4.03890625 67.87476563 3.40984375 68.2846875 2.76171875 68.70703125 C-6.09068242 74.27977777 -14.27390167 76.99911162 -24.7734375 75 C-35.09580481 72.26998423 -42.66587947 67.44771049 -48.63671875 58.515625 C-54.8524371 47.33019635 -55.85420717 35.67310165 -53.20703125 23.27734375 C-49.9643474 11.93542188 -43.66163815 4.09597655 -33.30859375 -1.66015625 C-22.91082061 -6.38228903 -9.64251241 -6.34758355 0 0 Z M-28.76953125 19.83984375 C-33.08128665 25.54517756 -34.64049147 31.5637536 -34.19140625 38.69921875 C-33.18414012 45.04937478 -30.30125178 49.41549801 -25.33203125 53.46484375 C-19.2729473 56.90954518 -13.02849912 57.00306521 -6.33203125 55.46484375 C-0.38882651 52.84156107 3.229683 49.56055813 5.66796875 43.46484375 C7.40920875 37.0802971 6.68850851 30.41306972 4.54296875 24.21484375 C1.21011514 19.32665845 -2.40736208 16.19489068 -7.95703125 14.08984375 C-15.74891891 12.64690159 -23.27102166 13.65402046 -28.76953125 19.83984375 Z M4.66796875 65.46484375 C4.99796875 66.45484375 5.32796875 67.44484375 5.66796875 68.46484375 C5.66796875 67.47484375 5.66796875 66.48484375 5.66796875 65.46484375 C5.33796875 65.46484375 5.00796875 65.46484375 4.66796875 65.46484375 Z " fill="#0C0C0C" transform="translate(823.33203125,482.53515625)"/>
<path d="M0 0 C8.58432101 7.31597379 11.93463676 15.29245733 13.5 26.25 C6.24 26.25 -1.02 26.25 -8.5 26.25 C-9.49 23.94 -10.48 21.63 -11.5 19.25 C-15.30905865 14.55216099 -19.36118019 13.29457991 -25.1875 12.4375 C-30.6004227 11.98372205 -35.62909846 12.77433078 -40.5 15.25 C-43.52271156 18.56946178 -44.4186909 21.92476359 -45.5 26.25 C-44.84 26.58 -44.18 26.91 -43.5 27.25 C-43.45875 28.013125 -43.4175 28.77625 -43.375 29.5625 C-42.70811417 32.60826423 -42.70811417 32.60826423 -39.25 34.203125 C-32.59247714 37.34535144 -25.34885123 38.77689196 -18.23046875 40.51757812 C-6.79535852 43.43306422 2.88609213 47.203954 9.81640625 57.13671875 C13.94317494 64.68568586 13.85582607 74.81907873 11.8046875 83.03515625 C8.07712747 92.16611211 1.27005256 98.40444376 -7.73046875 102.1875 C-12.57090807 103.92039394 -17.36126615 104.94111436 -22.5 105.25 C-23.32113281 105.30285156 -24.14226562 105.35570312 -24.98828125 105.41015625 C-37.5149947 105.82710909 -49.97286222 102.76791261 -59.59765625 94.43359375 C-66.1008181 87.59906059 -68.8131758 79.52212671 -69.5 70.25 C-65.63229545 68.96076515 -61.96562684 69.10494294 -57.9375 69.125 C-57.15697266 69.12113281 -56.37644531 69.11726562 -55.57226562 69.11328125 C-49.75335498 69.12332251 -49.75335498 69.12332251 -47.5 70.25 C-46.82421875 72.17578125 -46.82421875 72.17578125 -46.1875 74.5625 C-44.83294725 78.85078259 -43.46553959 80.88955977 -39.5 83.25 C-32.85351159 86.50253688 -24.2459745 86.22666356 -17.0703125 84.75 C-14.30296579 83.70482184 -12.54458503 82.29889972 -10.5625 80.125 C-9.07501829 76.1000495 -8.79234102 72.48800264 -9.5 68.25 C-14.25708828 61.29733252 -23.46013995 60.17980865 -31.125 58.4375 C-43.18270985 55.54310711 -54.57410829 52.52344322 -62.5 42.25 C-66.64087916 35.34853473 -67.25480675 28.15952429 -66.5 20.25 C-64.20992821 11.35143531 -59.56528617 3.93810851 -51.8125 -1.0625 C-36.60314052 -9.3441542 -14.67960005 -10.15639625 0 0 Z " fill="#0C0C0D" transform="translate(354.5,454.75)"/>
<path d="M0 0 C8.76583383 6.6009385 14.53845779 14.64918764 16.828125 25.50390625 C17.59728715 31.38002789 18.27444164 36.7186397 16.828125 42.50390625 C8.578125 42.50390625 0.328125 42.50390625 -8.171875 42.50390625 C-8.171875 43.16390625 -8.171875 43.82390625 -8.171875 44.50390625 C-11.74832348 45.74190765 -14.50882266 45.25316696 -18.171875 44.50390625 C-18.171875 44.17390625 -18.171875 43.84390625 -18.171875 43.50390625 C-24.771875 43.50390625 -31.371875 43.50390625 -38.171875 43.50390625 C-36.01755196 50.94615279 -36.01755196 50.94615279 -30.671875 56.06640625 C-23.41054712 59.04873734 -17.49962741 59.27579105 -10.06640625 56.55078125 C-8.00652392 55.57840584 -8.00652392 55.57840584 -6.57421875 53.41015625 C-2.72519076 50.35596819 1.32516026 51.0808291 6.078125 51.25390625 C7.48191406 51.28097656 7.48191406 51.28097656 8.9140625 51.30859375 C11.21979515 51.35564952 13.52343445 51.42136912 15.828125 51.50390625 C13.55926174 60.5683454 8.58715491 66.96758933 0.921875 72.2890625 C-9.73543267 78.47268691 -21.47115902 78.12621612 -33.171875 75.50390625 C-34.85422241 74.87786358 -36.52767121 74.22419516 -38.171875 73.50390625 C-38.501875 74.16390625 -38.831875 74.82390625 -39.171875 75.50390625 C-39.501875 74.51390625 -39.831875 73.52390625 -40.171875 72.50390625 C-41.80229822 71.15025318 -41.80229822 71.15025318 -43.796875 69.87890625 C-52.24430831 63.70228835 -57.22369897 55.80474118 -59.171875 45.50390625 C-60.53520479 30.84898271 -58.44315834 19.38822431 -49.921875 7.31640625 C-37.89768484 -4.98106096 -15.06626082 -10.37837751 0 0 Z M-34.421875 17.69140625 C-36.00508939 20.23585795 -36.61838811 21.83345158 -37.28125 24.6796875 C-37.57515625 25.94167969 -37.8690625 27.20367187 -38.171875 28.50390625 C-33.97267263 28.55344312 -29.77362631 28.58969036 -25.57421875 28.61376953 C-24.14645422 28.62381052 -22.71871017 28.63744606 -21.29101562 28.65478516 C-19.23562559 28.67911777 -17.18050808 28.69040827 -15.125 28.69921875 C-13.27116699 28.7149292 -13.27116699 28.7149292 -11.37988281 28.73095703 C-8.35528129 28.51688706 -6.70201849 28.10043784 -4.171875 26.50390625 C-4.56062539 21.0614008 -6.33740496 18.33837629 -10.171875 14.50390625 C-18.38414282 10.44591796 -27.81328495 11.26638814 -34.421875 17.69140625 Z M-4.171875 26.50390625 C-3.171875 28.50390625 -3.171875 28.50390625 -3.171875 28.50390625 Z " fill="#0C0C0C" transform="translate(690.171875,482.49609375)"/>
<path d="M0 0 C1.55074219 -0.00386719 1.55074219 -0.00386719 3.1328125 -0.0078125 C5.875 0.125 5.875 0.125 8.875 1.125 C9.205 20.925 9.535 40.725 9.875 61.125 C17.38015583 54.90497291 17.38015583 54.90497291 20.875 47.125 C22.16015625 45.8984375 22.16015625 45.8984375 23.9375 44.5 C28.97341891 40.33410773 33.25044435 35.56183348 36.875 30.125 C39.39697266 29.78442383 39.39697266 29.78442383 42.5390625 29.83203125 C43.66054688 29.84169922 44.78203125 29.85136719 45.9375 29.86132812 C47.113125 29.88646484 48.28875 29.91160156 49.5 29.9375 C50.68335938 29.95103516 51.86671875 29.96457031 53.0859375 29.97851562 C56.01607539 30.01396084 58.94531459 30.06337231 61.875 30.125 C61.875 32.125 61.875 32.125 59.875 34.25 C58.8771511 35.21057293 57.87678554 36.16853333 56.875 37.125 C55.45409837 38.51652208 54.03762597 39.9125775 52.625 41.3125 C51.93921875 41.98667969 51.2534375 42.66085937 50.546875 43.35546875 C48.80050889 45.03298995 48.80050889 45.03298995 47.875 47.125 C47.215 47.125 46.555 47.125 45.875 47.125 C45.60300781 47.71410156 45.33101563 48.30320312 45.05078125 48.91015625 C42.12213972 54.4268996 37.24732786 58.75267214 32.875 63.125 C31.86079571 64.44756094 30.85814786 65.77919241 29.875 67.125 C30.44605469 67.79402344 31.01710938 68.46304688 31.60546875 69.15234375 C38.49333922 77.31047332 44.99120455 85.73061134 51.44189453 94.23681641 C53.28507011 96.66528658 55.1375423 99.08628632 57 101.5 C57.49757813 102.14710938 57.99515625 102.79421875 58.5078125 103.4609375 C59.87016562 105.17685848 59.87016562 105.17685848 61.5546875 106.7890625 C62.875 108.125 62.875 108.125 62.875 109.125 C58.97956123 109.27053599 55.08482349 109.35915059 51.1875 109.4375 C50.08470703 109.47939453 48.98191406 109.52128906 47.84570312 109.56445312 C39.66306972 109.68805786 39.66306972 109.68805786 35.9609375 107.04296875 C35.27257812 106.08003906 34.58421875 105.11710938 33.875 104.125 C32.95947495 103.01664428 32.0385648 101.91272219 31.11328125 100.8125 C30.13454965 99.58609549 29.15941922 98.35681029 28.1875 97.125 C27.67219727 96.476521 27.15689453 95.82804199 26.62597656 95.15991211 C21.64017515 88.86797764 16.74143708 82.50950706 11.875 76.125 C9.08322431 78.91677569 9.56286516 80.75683572 9.4609375 84.6640625 C9.42226563 85.96601562 9.38359375 87.26796875 9.34375 88.609375 C9.31229237 89.98957862 9.28104509 91.36978704 9.25 92.75 C9.21182066 94.13804541 9.17276895 95.52606711 9.1328125 96.9140625 C9.03827057 100.31757185 8.95272103 103.72107165 8.875 107.125 C9.535 107.455 10.195 107.785 10.875 108.125 C8.52647472 109.29926264 7.13725935 109.24008173 4.5234375 109.22265625 C3.67265625 109.21943359 2.821875 109.21621094 1.9453125 109.21289062 C1.05585938 109.20451172 0.16640625 109.19613281 -0.75 109.1875 C-1.6471875 109.18298828 -2.544375 109.17847656 -3.46875 109.17382812 C-5.68756648 109.16202591 -7.90625018 109.14556155 -10.125 109.125 C-11.24306771 103.74402876 -11.25960984 98.54746262 -11.23852539 93.08056641 C-11.23867142 92.08482605 -11.23881744 91.08908569 -11.2389679 90.06317139 C-11.23827333 86.78427931 -11.23050227 83.50544461 -11.22265625 80.2265625 C-11.22079045 77.94827302 -11.21936731 75.66998314 -11.21836853 73.39169312 C-11.21455611 67.40434658 -11.2047367 61.41702442 -11.19366455 55.4296875 C-11.18342303 49.3164096 -11.17886504 43.20312776 -11.17382812 37.08984375 C-11.16311329 25.10155181 -11.14605217 13.11327793 -11.125 1.125 C-7.33920652 0.31986926 -3.87734677 -0.00971766 0 0 Z " fill="#0B0B0B" transform="translate(387.125,448.875)"/>
<path d="M0 0 C8.84170358 10.82086838 11.26472218 22.19377216 10.60546875 35.96484375 C8.0560806 37.23953782 6.27505877 37.08500559 3.42138672 37.07836914 C2.34041718 37.07829361 1.25944763 37.07821808 0.14572144 37.07814026 C-1.61057083 37.07039833 -1.61057083 37.07039833 -3.40234375 37.0625 C-4.59810028 37.06108505 -5.79385681 37.0596701 -7.02584839 37.05821228 C-10.85710112 37.05260038 -14.68829609 37.04004583 -18.51953125 37.02734375 C-21.11197832 37.02233028 -23.70442631 37.01776711 -26.296875 37.01367188 C-32.66278023 37.00262708 -39.02865162 36.98587734 -45.39453125 36.96484375 C-44.96368638 38.40684361 -44.5197099 39.84492382 -44.0703125 41.28125 C-43.82450439 42.08248291 -43.57869629 42.88371582 -43.32543945 43.70922852 C-41.43396778 48.29231449 -37.95738277 50.25136806 -33.51953125 52.27734375 C-26.80216816 53.75516363 -20.41184769 53.54054398 -14.39453125 49.96484375 C-13.95947266 49.29130859 -13.52441406 48.61777344 -13.07617188 47.92382812 C-11.39453125 45.96484375 -11.39453125 45.96484375 -9.21801758 45.51074219 C-8.3958374 45.53168945 -7.57365723 45.55263672 -6.7265625 45.57421875 C-5.83388672 45.58710937 -4.94121094 45.6 -4.02148438 45.61328125 C-3.09271484 45.64679687 -2.16394531 45.6803125 -1.20703125 45.71484375 C0.20352539 45.74191406 0.20352539 45.74191406 1.64257812 45.76953125 C3.96456764 45.81667825 6.28450565 45.88246144 8.60546875 45.96484375 C8.93546875 46.62484375 9.26546875 47.28484375 9.60546875 47.96484375 C5.40113519 57.73655965 -0.92226326 64.52733503 -10.59375 68.9765625 C-21.71026796 73.0679201 -33.15240609 72.69542765 -44.08203125 68.21484375 C-53.78769488 63.46600119 -58.80170629 57.50167204 -63.43359375 47.78515625 C-64.37201954 45.790544 -64.37201954 45.790544 -66.39453125 43.96484375 C-65.89953125 43.46984375 -65.89953125 43.46984375 -65.39453125 42.96484375 C-65.63766119 41.36713273 -65.88097138 39.76944901 -66.125 38.171875 C-67.67895231 25.44748294 -65.3236275 13.22602714 -57.39453125 2.96484375 C-48.75724265 -6.43695062 -38.73657749 -10.32688521 -26.1796875 -11.21875 C-16.85086817 -10.76626857 -6.62126489 -6.67973081 0 0 Z M-41.64453125 12.33984375 C-44.0310451 15.91961453 -45.39453125 18.63498126 -45.39453125 22.96484375 C-33.84453125 22.96484375 -22.29453125 22.96484375 -10.39453125 22.96484375 C-11.57637019 14.3801632 -11.57637019 14.3801632 -17.33203125 8.65234375 C-25.32044868 4.47117208 -35.51891484 5.87391531 -41.64453125 12.33984375 Z " fill="#0C0C0C" transform="translate(925.39453125,488.03515625)"/>
<path d="M0 0 C7.26 0 14.52 0 22 0 C22.5347998 1.48846436 23.06959961 2.97692871 23.62060547 4.51049805 C25.60635802 10.03653837 27.59328526 15.56215571 29.58056641 21.08764648 C30.44026182 23.47848181 31.29963928 25.8694315 32.15869141 28.26049805 C33.39401878 31.6987069 34.63049165 35.13650193 35.8671875 38.57421875 C36.25059296 39.64210129 36.63399841 40.70998383 37.02902222 41.81022644 C37.38924469 42.81088638 37.74946716 43.81154633 38.12060547 44.8425293 C38.43593231 45.71967087 38.75125916 46.59681244 39.07614136 47.50053406 C40.00712165 50.01926736 40.99145706 52.51142492 42 55 C42.33 53.02 42.66 51.04 43 49 C43.66 49 44.32 49 45 49 C45.13317627 48.43434326 45.26635254 47.86868652 45.40356445 47.28588867 C47.91529548 37.36876734 51.61217954 27.8820283 55.1875 18.3125 C55.84874072 16.53206195 56.50955155 14.75146419 57.16992188 12.97070312 C58.77421063 8.64496093 60.38726622 4.32263783 62 0 C69.26 0 76.52 0 84 0 C78.58403276 14.74346639 72.73003655 29.3082317 66.85705566 43.8739624 C65.97013649 46.0740803 65.08415815 48.27457563 64.19824219 50.47509766 C62.69692124 54.20282055 61.19225746 57.92917861 59.68508911 61.65454102 C59.10461046 63.0900954 58.52491532 64.52596686 57.9460144 65.9621582 C57.13969761 67.96147661 56.33008719 69.9594284 55.51953125 71.95703125 C54.82500854 73.67369995 54.82500854 73.67369995 54.11645508 75.42504883 C53 78 53 78 52 79 C50.43827255 79.08685603 48.87270656 79.10702219 47.30859375 79.09765625 C46.36435547 79.09443359 45.42011719 79.09121094 44.44726562 79.08789062 C43.45404297 79.07951172 42.46082031 79.07113281 41.4375 79.0625 C40.44041016 79.05798828 39.44332031 79.05347656 38.41601562 79.04882812 C35.94395151 79.03700007 33.47200482 79.02051849 31 79 C30.73896484 78.37246826 30.47792969 77.74493652 30.20898438 77.09838867 C28.97307027 74.12792 27.73654309 71.1577069 26.5 68.1875 C26.04657227 67.09759766 25.59314453 66.00769531 25.12597656 64.88476562 C23.02083693 59.82947593 20.91109032 54.77660759 18.765625 49.73828125 C15.41379265 41.86414808 12.17264838 33.9818826 9.23095703 25.94458008 C7.06196914 20.05169157 4.65992944 14.26356326 2.18334961 8.49365234 C0.92030824 5.50165562 0 3.28305787 0 0 Z " fill="#0C0C0C" transform="translate(549,479)"/>
<path d="M0 0 C1.05445313 -0.00257813 2.10890625 -0.00515625 3.1953125 -0.0078125 C5.875 0.125 5.875 0.125 7.875 1.125 C7.875 7.395 7.875 13.665 7.875 20.125 C6.410625 20.08375 4.94625 20.0425 3.4375 20 C-4.2305974 20.02169193 -11.1947379 20.88430326 -17.125 26.125 C-22.32923442 33.63110733 -22.28311934 42.15109613 -22.1875 50.96484375 C-22.18371338 51.77240616 -22.17992676 52.57996857 -22.17602539 53.41200256 C-22.16391729 55.96222564 -22.14526434 58.51232954 -22.125 61.0625 C-22.09849507 64.44661106 -22.07850093 67.83066868 -22.0625 71.21484375 C-22.05420166 71.99391586 -22.04590332 72.77298798 -22.03735352 73.57566833 C-22.02880523 75.42565651 -22.07161939 77.27576237 -22.125 79.125 C-23.125 80.125 -23.125 80.125 -24.98266602 80.23852539 C-26.16880493 80.23067017 -26.16880493 80.23067017 -27.37890625 80.22265625 C-28.23291016 80.21943359 -29.08691406 80.21621094 -29.96679688 80.21289062 C-30.86462891 80.20451172 -31.76246094 80.19613281 -32.6875 80.1875 C-33.58919922 80.18298828 -34.49089844 80.17847656 -35.41992188 80.17382812 C-37.65501314 80.16200225 -39.88997437 80.1455222 -42.125 80.125 C-43.31615857 76.37642347 -43.25200453 72.80718418 -43.25439453 68.89379883 C-43.25614685 68.17305679 -43.25789917 67.45231476 -43.25970459 66.70973206 C-43.26409661 64.33380711 -43.26119538 61.95795691 -43.2578125 59.58203125 C-43.25848608 57.93104539 -43.25945656 56.28005962 -43.26071167 54.6290741 C-43.26218486 51.17336073 -43.2600454 47.71767325 -43.25537109 44.26196289 C-43.24966062 39.8229839 -43.25296352 35.38406519 -43.25894356 30.94508839 C-43.26254796 27.53858481 -43.26141138 24.13209566 -43.25881577 20.72559166 C-43.25814685 19.08805013 -43.25897368 17.45050732 -43.26129532 15.8129673 C-43.26382131 13.53128177 -43.25998267 11.24969566 -43.25439453 8.96801758 C-43.25359894 7.66770096 -43.25280334 6.36738434 -43.25198364 5.02766418 C-43.125 2.125 -43.125 2.125 -42.125 1.125 C-40.70929877 1.03848389 -39.289405 1.01795096 -37.87109375 1.02734375 C-36.59008789 1.03217773 -36.59008789 1.03217773 -35.28320312 1.03710938 C-34.38537109 1.04548828 -33.48753906 1.05386719 -32.5625 1.0625 C-31.66080078 1.06701172 -30.75910156 1.07152344 -29.83007812 1.07617188 C-27.59498686 1.08799775 -25.36002563 1.1044778 -23.125 1.125 C-22.97160156 1.90230469 -22.81820312 2.67960937 -22.66015625 3.48046875 C-22.20771418 5.71625912 -21.69730119 7.91755257 -21.125 10.125 C-20.3515625 9.01125 -20.3515625 9.01125 -19.5625 7.875 C-14.13737573 1.75434697 -7.97760369 -0.01960099 0 0 Z " fill="#0C0C0C" transform="translate(760.125,477.875)"/>
<path d="M0 0 C0 35.31 0 70.62 0 107 C0.66 107.33 1.32 107.66 2 108 C-0.34852528 109.17426264 -1.73774065 109.11508173 -4.3515625 109.09765625 C-5.20234375 109.09443359 -6.053125 109.09121094 -6.9296875 109.08789062 C-7.81914062 109.07951172 -8.70859375 109.07113281 -9.625 109.0625 C-10.5221875 109.05798828 -11.419375 109.05347656 -12.34375 109.04882812 C-14.56256648 109.03702591 -16.78125018 109.02056155 -19 109 C-20.30930433 104.02320061 -20.13294489 99.08242084 -20.11352539 93.97729492 C-20.11367142 92.97194702 -20.11381744 91.96659912 -20.1139679 90.93078613 C-20.11327228 87.61399158 -20.10549625 84.29725347 -20.09765625 80.98046875 C-20.09579083 78.67832978 -20.09436751 76.37619041 -20.09336853 74.0740509 C-20.08955316 68.0192861 -20.0797312 61.96454535 -20.06866455 55.90979004 C-20.05842939 49.72957688 -20.0538664 43.54935982 -20.04882812 37.36914062 C-20.03810808 25.24608319 -20.02104339 13.1230436 -20 1 C-17.4167588 0.83178895 -14.83342301 0.66537483 -12.25 0.5 C-11.52039063 0.45230469 -10.79078125 0.40460938 -10.0390625 0.35546875 C-6.68189836 0.14183103 -3.36563724 0 0 0 Z " fill="#0C0C0C" transform="translate(508,449)"/>
<path d="M0 0 C6.27 0 12.54 0 19 0 C20.53322134 1.53322134 20.12592806 2.91766754 20.12698364 5.05503845 C20.12980347 5.92859482 20.13262329 6.80215118 20.13552856 7.70217896 C20.13350433 8.6679184 20.1314801 9.63365784 20.12939453 10.62866211 C20.13114685 11.63996689 20.13289917 12.65127167 20.13470459 13.69322205 C20.13912563 17.05461312 20.13618401 20.41595209 20.1328125 23.77734375 C20.13348552 26.10282908 20.13445553 28.42831435 20.13571167 30.75379944 C20.13718903 35.63559639 20.13503307 40.51737509 20.13037109 45.39916992 C20.12467695 51.66872837 20.12795059 57.93824399 20.13394356 64.20780087 C20.13755084 69.01262232 20.13640975 73.81743357 20.13381577 78.62225533 C20.1331468 80.93441333 20.13397387 83.24657224 20.13629532 85.55872917 C20.13882422 88.78649234 20.13497769 92.01418543 20.12939453 95.24194336 C20.13141876 96.20565857 20.13344299 97.16937378 20.13552856 98.16229248 C20.13129883 99.47685677 20.13129883 99.47685677 20.12698364 100.81797791 C20.12660662 101.58176726 20.12622959 102.34555662 20.12584114 103.13249111 C20 105 20 105 19 107 C20.485 107.495 20.485 107.495 22 108 C17.80456908 109.39847697 13.83118623 109.18425263 9.4375 109.1875 C8.56158203 109.19974609 7.68566406 109.21199219 6.78320312 109.22460938 C5.94595703 109.22654297 5.10871094 109.22847656 4.24609375 109.23046875 C3.09645142 109.23663208 3.09645142 109.23663208 1.92358398 109.24291992 C0 109 0 109 -2 107 C-1.34 107 -0.68 107 0 107 C0 71.69 0 36.38 0 0 Z " fill="#0C0B0B" transform="translate(522,449)"/>
<path d="M0 0 C6.6 0 13.2 0 20 0 C20.02255146 10.15266547 20.04091534 20.30531443 20.05181217 30.45799923 C20.05704089 35.17179733 20.06413834 39.88557747 20.07543945 44.59936523 C20.08626873 49.14455404 20.09227692 53.68972552 20.09487724 58.23492622 C20.09673142 59.97294958 20.10035189 61.71097194 20.10573006 63.44898796 C20.11294103 65.87478595 20.11399092 68.30051146 20.11352539 70.72631836 C20.11712067 71.45208069 20.12071594 72.17784302 20.12442017 72.92559814 C20.11405216 77.88594784 20.11405216 77.88594784 19 79 C12.73 79 6.46 79 0 79 C0 52.93 0 26.86 0 0 Z " fill="#0D0D0D" transform="translate(455,479)"/>
<path d="M0 0 C2.40406076 1.92324861 3.63919534 3.27839067 5 6 C5.39771327 10.77255923 5.47453429 13.08482672 3.25 17.375 C0.66111425 20.39536671 -1.22870291 21.69404868 -5.1484375 22.37109375 C-9.38139331 22.4973398 -12.14342222 22.37350209 -15.5 19.625 C-18.6006477 16.36931992 -19.1513295 14.97992823 -19.1875 10.625 C-19.20167969 9.85414063 -19.21585937 9.08328125 -19.23046875 8.2890625 C-18.8916627 4.92397186 -18.00669395 2.82563389 -15.37109375 0.6640625 C-9.8506354 -2.30248683 -5.80617804 -2.46876862 0 0 Z " fill="#0C0C0C" transform="translate(472,448)"/>
<path d="M0 0 C1.12192496 1.10745183 2.23314672 2.22581854 3.3352356 3.35301208 C4.25607185 4.27056274 4.25607185 4.27056274 5.19551086 5.20664978 C7.20773853 7.21657914 9.20536142 9.24036876 11.20291138 11.26487732 C12.60218286 12.66907536 14.00227069 14.07246034 15.40313721 15.47506714 C18.32914577 18.40869902 21.24858499 21.34865451 24.16287231 24.29393005 C27.90370591 28.07446529 31.65534587 31.84403497 35.41123772 35.60960484 C38.99117885 39.19950073 42.56613255 42.79434502 46.14041138 46.38987732 C46.8247311 47.07759279 47.50905083 47.76530827 48.21410751 48.4738636 C50.14135068 50.41264576 52.06505593 52.35486354 53.98757935 54.29832458 C54.56208328 54.87551743 55.13658722 55.45271027 55.72850037 56.0473938 C60.75077642 61.1385984 60.75077642 61.1385984 60.83572388 65.38597107 C60.81509888 66.33472107 60.79447388 67.28347107 60.77322388 68.26097107 C60.44322388 68.26097107 60.11322388 68.26097107 59.77322388 68.26097107 C59.43331169 66.70111984 59.43331169 66.70111984 59.08653259 65.10975647 C57.9017586 61.00113089 55.81529616 58.69862752 52.76028442 55.68040466 C51.99648468 54.91550972 51.99648468 54.91550972 51.21725464 54.13516235 C49.54306794 52.46443833 47.85191106 50.81210571 46.15994263 49.15940857 C44.98541335 47.99421881 43.81199354 46.82790972 42.63963318 45.66053772 C39.55686931 42.59680968 36.45940316 39.54838031 33.35855103 36.50297546 C30.21503265 33.41051121 27.0855109 30.30395611 23.9548645 27.19847107 C18.43870284 21.73007967 12.91043317 16.27419726 7.37312317 10.82722473 C5.60776513 9.08471242 3.8542074 7.33017996 2.11143494 5.56507874 C-0.21789047 3.18005531 -0.21789047 3.18005531 -3.03927612 1.07347107 C-3.76115112 0.47534607 -4.48302612 -0.12277893 -5.22677612 -0.73902893 C-5.22677612 -1.39902893 -5.22677612 -2.05902893 -5.22677612 -2.73902893 C-11.14289794 -3.37913536 -11.14289794 -3.37913536 -16.03927612 -0.42652893 C-16.76115112 0.46034607 -17.48302612 1.34722107 -18.22677612 2.26097107 C-19.22677612 3.26097107 -20.22677612 4.26097107 -21.22677612 5.26097107 C-22.21677612 4.93097107 -23.20677612 4.60097107 -24.22677612 4.26097107 C-20.92083229 -0.31648962 -17.37460127 -3.21588773 -12.28927612 -5.67652893 C-7.51921801 -5.82107615 -3.38921882 -3.12366819 0 0 Z " fill="#8357DE" transform="translate(173.22677612304688,392.73902893066406)"/>
<path d="M0 0 C2.52197266 -0.34057617 2.52197266 -0.34057617 5.6640625 -0.29296875 C6.78554688 -0.28330078 7.90703125 -0.27363281 9.0625 -0.26367188 C10.238125 -0.23853516 11.41375 -0.21339844 12.625 -0.1875 C13.80835938 -0.17396484 14.99171875 -0.16042969 16.2109375 -0.14648438 C19.14107539 -0.11103916 22.07031459 -0.06162769 25 0 C25 0.66 25 1.32 25 2 C24.32420898 1.9685791 23.64841797 1.9371582 22.95214844 1.90478516 C19.88510728 1.77993309 16.81859998 1.70198996 13.75 1.625 C12.68652344 1.57472656 11.62304688 1.52445312 10.52734375 1.47265625 C7.57486428 1.41694909 4.90026524 1.43805749 2 2 C-0.62490064 4.64282907 -0.62490064 4.64282907 -2 8 C-5.82405028 12.3410193 -9.77546635 16.38773318 -15 19 C-15.33 18.34 -15.66 17.68 -16 17 C-14.989375 16.175 -13.97875 15.35 -12.9375 14.5 C-7.96138142 10.24197983 -3.63313554 5.4497033 0 0 Z " fill="#171616" transform="translate(424,479)"/>
<path d="M0 0 C0.66 0 1.32 0 2 0 C2.79953138 3.28696233 3.09658936 4.71023192 2 8 C1.84929203 10.13661258 1.7514034 12.27712124 1.68359375 14.41796875 C1.64169922 15.67158203 1.59980469 16.92519531 1.55664062 18.21679688 C1.51732422 19.52712891 1.47800781 20.83746094 1.4375 22.1875 C1.39429008 23.52279978 1.350675 24.85808652 1.30664062 26.19335938 C1.20043498 29.46213297 1.09839003 32.73098333 1 36 C1.66 36.33 2.32 36.66 3 37 C0.65147472 38.17426264 -0.73774065 38.11508173 -3.3515625 38.09765625 C-4.20234375 38.09443359 -5.053125 38.09121094 -5.9296875 38.08789062 C-6.81914062 38.07951172 -7.70859375 38.07113281 -8.625 38.0625 C-9.97078125 38.05573242 -9.97078125 38.05573242 -11.34375 38.04882812 C-13.56256648 38.03702591 -15.78125018 38.02056155 -18 38 C-18 36.35 -18 34.7 -18 33 C-17.34 33.66 -16.68 34.32 -16 35 C-10.72 35.66 -5.44 36.32 0 37 C0 24.79 0 12.58 0 0 Z " fill="#131312" transform="translate(395,520)"/>
<path d="M0 0 C7.92 0 15.84 0 24 0 C24.33 0.99 24.66 1.98 25 3 C17.08 3 9.16 3 1 3 C0.67 2.01 0.34 1.02 0 0 Z " fill="#1A1A19" transform="translate(425,555)"/>
<path d="M0 0 C0.33 0 0.66 0 1 0 C2.39683376 7.60498381 2.10774296 15.36138985 1 23 C0.34 23.33 -0.32 23.66 -1 24 C-1.02893932 20.37501666 -1.04677792 16.75006287 -1.0625 13.125 C-1.07087891 12.09246094 -1.07925781 11.05992187 -1.08789062 9.99609375 C-1.09111328 9.00996094 -1.09433594 8.02382813 -1.09765625 7.0078125 C-1.10289307 6.09660645 -1.10812988 5.18540039 -1.11352539 4.24658203 C-1 2 -1 2 0 0 Z " fill="#060506" transform="translate(736,512)"/>
<path d="M0 0 C9.64076549 1.21763011 18.18616469 6.18616469 25 13 C25 13.66 25 14.32 25 15 C24.01 14.67 23.02 14.34 22 14 C22 13.34 22 12.68 22 12 C21.49597656 11.7525 20.99195313 11.505 20.47265625 11.25 C17.10267295 9.54637495 13.770704 7.77428024 10.4375 6 C9.76525391 5.64421875 9.09300781 5.2884375 8.40039062 4.921875 C5.50834212 3.38251254 2.72830415 1.81886943 0 0 Z " fill="#8558E1" transform="translate(207,497)"/>
<path d="M0 0 C4.29 0.33 8.58 0.66 13 1 C13 1.33 13 1.66 13 2 C15.31 2.33 17.62 2.66 20 3 C20 3.33 20 3.66 20 4 C13.31344281 4.22124638 7.3835456 4.12784853 1 2 C0.67 1.34 0.34 0.68 0 0 Z " fill="#1A191B" transform="translate(312,556)"/>
<path d="M0 0 C-0.33 0.99 -0.66 1.98 -1 3 C-5.95 3 -10.9 3 -16 3 C-15.67 2.01 -15.34 1.02 -15 0 C-12.87562788 -0.19448477 -10.75046809 -0.38038289 -8.625 -0.5625 C-7.44164062 -0.66691406 -6.25828125 -0.77132813 -5.0390625 -0.87890625 C-2 -1 -2 -1 0 0 Z " fill="#161616" transform="translate(905,478)"/>
<path d="M0 0 C2 0 2 0 4.1875 2 C7.59598309 5.5411486 10.79385088 9.276432 14 13 C13.01 13 12.02 13 11 13 C10.67 12.01 10.34 11.02 10 10 C9.01 9.67 8.02 9.34 7 9 C7 8.34 7 7.68 7 7 C6.401875 6.773125 5.80375 6.54625 5.1875 6.3125 C2.43648112 4.66188867 1.47515363 2.8027919 0 0 Z " fill="#895BE2" transform="translate(139,595)"/>
<path d="M0 0 C-6.56492112 0.78441153 -12.46837378 1.10914408 -19 0 C-19 -0.33 -19 -0.66 -19 -1 C-12.54450809 -2.32420347 -5.89489786 -3.37422887 0 0 Z " fill="#161617" transform="translate(908,559)"/>
<path d="M0 0 C3.2578125 -0.29296875 3.2578125 -0.29296875 7.125 -0.1875 C9.04699219 -0.14689453 9.04699219 -0.14689453 11.0078125 -0.10546875 C11.99523437 -0.07066406 12.98265625 -0.03585937 14 0 C14 0.66 14 1.32 14 2 C6.08 2.495 6.08 2.495 -2 3 C-1.34 2.01 -0.68 1.02 0 0 Z " fill="#141313" transform="translate(662,478)"/>
<path d="M0 0 C0.66 0.66 1.32 1.32 2 2 C4.8907496 2.4673667 7.71660569 2.83699342 10.625 3.125 C11.82769531 3.25455078 11.82769531 3.25455078 13.0546875 3.38671875 C15.03563635 3.59896327 17.01772718 3.80049931 19 4 C19 4.33 19 4.66 19 5 C12.73 5 6.46 5 0 5 C0 3.35 0 1.7 0 0 Z " fill="#242323" transform="translate(377,553)"/>
<path d="M0 0 C3.45281166 1.15093722 4.38082163 2.3205993 6.6875 5.0625 C7.31011719 5.79597656 7.93273437 6.52945313 8.57421875 7.28515625 C9.04472656 7.85105469 9.51523437 8.41695312 10 9 C9.67 9.66 9.34 10.32 9 11 C1.33257403 5.03416856 1.33257403 5.03416856 0 0 Z " fill="#121113" transform="translate(290,541)"/>
<path d="M0 0 C5.94 0 11.88 0 18 0 C18 0.33 18 0.66 18 1 C13.38 1.33 8.76 1.66 4 2 C3.34 3.65 2.68 5.3 2 7 C1.67 7 1.34 7 1 7 C0.67 4.69 0.34 2.38 0 0 Z " fill="#040404" transform="translate(717,480)"/>
<path d="M0 0 C2.67289025 3.87671106 2.01875653 7.79267603 1.625 12.25 C1.53992188 13.36761719 1.53992188 13.36761719 1.453125 14.5078125 C1.31223742 16.33935108 1.15748116 18.16981352 1 20 C0.67 20 0.34 20 0 20 C-0.19585135 17.60458732 -0.38192107 15.20907226 -0.5625 12.8125 C-0.61857422 12.13896484 -0.67464844 11.46542969 -0.73242188 10.77148438 C-1.00963763 6.982869 -0.96511161 3.68172206 0 0 Z " fill="#050405" transform="translate(718,508)"/>
<path d="M0 0 C3.67446567 0.70662801 6.73912209 2.18840116 10 4 C10.33 4.66 10.66 5.32 11 6 C9.5410574 5.52269162 8.08286504 5.04308958 6.625 4.5625 C5.81289063 4.29566406 5.00078125 4.02882813 4.1640625 3.75390625 C2 3 2 3 0 2 C0 1.34 0 0.68 0 0 Z " fill="#121113" transform="translate(302,552)"/>
<path d="M0 0 C3.3 0 6.6 0 10 0 C7 3 7 3 3.3125 3.1875 C1.6728125 3.0946875 1.6728125 3.0946875 0 3 C0 2.01 0 1.02 0 0 Z " fill="#151515" transform="translate(669,510)"/>
<path d="M0 0 C0.66 0.33 1.32 0.66 2 1 C0.02 3.31 -1.96 5.62 -4 8 C-4.66 7.34 -5.32 6.68 -6 6 C-4.02 4.02 -2.04 2.04 0 0 Z " fill="#121112" transform="translate(361,543)"/>
<path d="M0 0 C3.55780196 0.60990891 6.6828589 1.5783681 10 3 C10 3.66 10 4.32 10 5 C2.42857143 3.14285714 2.42857143 3.14285714 0 0 Z " fill="#131212" transform="translate(875,552)"/>
<path d="M0 0 C0.66 0 1.32 0 2 0 C2.33 1.98 2.66 3.96 3 6 C0.525 5.01 0.525 5.01 -2 4 C-1.34 2.68 -0.68 1.36 0 0 Z " fill="#161616" transform="translate(774,572)"/>
<path d="M0 0 C0.66 0 1.32 0 2 0 C2.79953138 3.28696233 3.09658936 4.71023192 2 8 C1.34 8 0.68 8 0 8 C0 5.36 0 2.72 0 0 Z " fill="#1C1C1C" transform="translate(395,520)"/>
<path d="M0 0 C2.31 0 4.62 0 7 0 C7 0.33 7 0.66 7 1 C4.69 1 2.38 1 0 1 C0 0.67 0 0.34 0 0 Z " fill="#242323" transform="translate(664,526)"/>
<path d="M0 0 C1.65 0 3.3 0 5 0 C5 0.33 5 0.66 5 1 C3.35 1 1.7 1 0 1 C0 0.67 0 0.34 0 0 Z " fill="#222222" transform="translate(896,526)"/>
<path d="M0 0 C1.65 0 3.3 0 5 0 C5 0.33 5 0.66 5 1 C3.35 1 1.7 1 0 1 C0 0.67 0 0.34 0 0 Z " fill="#222222" transform="translate(888,526)"/>
<path d="M0 0 C1.65 0 3.3 0 5 0 C5 0.33 5 0.66 5 1 C3.35 1 1.7 1 0 1 C0 0.67 0 0.34 0 0 Z " fill="#242323" transform="translate(696,526)"/>
<path d="M0 0 C0.99 0.33 1.98 0.66 3 1 C2.01 1 1.02 1 0 1 C0 0.67 0 0.34 0 0 Z " fill="#2D2D2E" transform="translate(880,557)"/>
<path d="M0 0 C4 1 4 1 4 1 Z " fill="#272727" transform="translate(916,532)"/>
<path d="M0 0 C4 1 4 1 4 1 Z " fill="#232423" transform="translate(657,526)"/>
<path d="M0 0 C3 1 3 1 3 1 Z " fill="#282829" transform="translate(805,571)"/>
<path d="" fill="#1F1E1F" transform="translate(0,0)"/>
<path d="M0 0 C0.66 0.66 1.32 1.32 2 2 C1.34 2 0.68 2 0 2 C0 1.34 0 0.68 0 0 Z " fill="#232422" transform="translate(653,526)"/>
<path d="M0 0 C3 1 3 1 3 1 Z " fill="#2C2B2C" transform="translate(930,526)"/>
<path d="M0 0 C3 1 3 1 3 1 Z " fill="#242423" transform="translate(912,526)"/>
<path d="M0 0 C3 1 3 1 3 1 Z " fill="#242424" transform="translate(906,526)"/>
<path d="" fill="#252525" transform="translate(0,0)"/>
<path d="" fill="#282929" transform="translate(0,0)"/>
<path d="M0 0 C2 1 2 1 2 1 Z " fill="#2C2D2D" transform="translate(775,569)"/>
<path d="M0 0 C2 1 2 1 2 1 Z " fill="#282726" transform="translate(805,559)"/>
<path d="M0 0 C2 1 2 1 2 1 Z " fill="#2E2E2E" transform="translate(718,559)"/>
<path d="M0 0 C2 1 2 1 2 1 Z " fill="#343235" transform="translate(341,559)"/>
<path d="M0 0 C2 1 2 1 2 1 Z " fill="#3D3544" transform="translate(306,557)"/>
<path d="" fill="#2F2E2E" transform="translate(0,0)"/>
<path d="" fill="#2B2B29" transform="translate(0,0)"/>
<path d="" fill="#252523" transform="translate(0,0)"/>
<path d="M0 0 C2 1 2 1 2 1 Z " fill="#272828" transform="translate(865,545)"/>
<path d="" fill="#262426" transform="translate(0,0)"/>
<path d="" fill="#232625" transform="translate(0,0)"/>
<path d="" fill="#262524" transform="translate(0,0)"/>
<path d="M0 0 C2 1 2 1 2 1 Z " fill="#212222" transform="translate(902,526)"/>
<path d="M0 0 C2 1 2 1 2 1 Z " fill="#242323" transform="translate(691,526)"/>
<path d="M0 0 C2 1 2 1 2 1 Z " fill="#232324" transform="translate(683,526)"/>
<path d="" fill="#252422" transform="translate(0,0)"/>
<path d="" fill="#242422" transform="translate(0,0)"/>
<path d="" fill="#232223" transform="translate(0,0)"/>
<path d="M0 0 C2 1 2 1 2 1 Z " fill="#2D2933" transform="translate(306,509)"/>
<path d="M0 0 C2 1 2 1 2 1 Z " fill="#272625" transform="translate(766,499)"/>
<path d="M0 0 C2 1 2 1 2 1 Z " fill="#272725" transform="translate(761,499)"/>
<path d="" fill="#1D1D1E" transform="translate(0,0)"/>
<path d="M0 0 C2 1 2 1 2 1 Z " fill="#2C2C2D" transform="translate(872,484)"/>
<path d="M0 0 C2 1 2 1 2 1 Z " fill="#313130" transform="translate(897,476)"/>
<path d="M0 0 C2 1 2 1 2 1 Z " fill="#252524" transform="translate(460,471)"/>
<path d="" fill="#9A74EB" transform="translate(0,0)"/>
<path d="" fill="#363333" transform="translate(0,0)"/>
<path d="" fill="#333234" transform="translate(0,0)"/>
<path d="" fill="#2B2B2B" transform="translate(0,0)"/>
<path d="" fill="#2F3030" transform="translate(0,0)"/>
<path d="" fill="#2A2B2D" transform="translate(0,0)"/>
<path d="" fill="#2C2A2D" transform="translate(0,0)"/>
<path d="" fill="#2A2D2F" transform="translate(0,0)"/>
<path d="" fill="#2B2B2B" transform="translate(0,0)"/>
<path d="" fill="#2D2B2B" transform="translate(0,0)"/>
<path d="" fill="#2B2B2D" transform="translate(0,0)"/>
<path d="" fill="#2E2E2E" transform="translate(0,0)"/>
<path d="" fill="#3D3945" transform="translate(0,0)"/>
<path d="" fill="#28272A" transform="translate(0,0)"/>
<path d="" fill="#2E2D2D" transform="translate(0,0)"/>
<path d="" fill="#2D2B2C" transform="translate(0,0)"/>
<path d="" fill="#3E3847" transform="translate(0,0)"/>
<path d="" fill="#323030" transform="translate(0,0)"/>
<path d="" fill="#31302F" transform="translate(0,0)"/>
<path d="" fill="#2C2A2C" transform="translate(0,0)"/>
<path d="" fill="#292A29" transform="translate(0,0)"/>
<path d="" fill="#2E2F2E" transform="translate(0,0)"/>
<path d="" fill="#2F2D2F" transform="translate(0,0)"/>
<path d="" fill="#292A28" transform="translate(0,0)"/>
<path d="" fill="#2B292B" transform="translate(0,0)"/>
<path d="" fill="#2B292B" transform="translate(0,0)"/>
<path d="" fill="#2C292A" transform="translate(0,0)"/>
<path d="" fill="#423C4F" transform="translate(0,0)"/>
<path d="" fill="#453D54" transform="translate(0,0)"/>
<path d="" fill="#292528" transform="translate(0,0)"/>
<path d="" fill="#272728" transform="translate(0,0)"/>
<path d="" fill="#A07BE8" transform="translate(0,0)"/>
<path d="" fill="#282528" transform="translate(0,0)"/>
<path d="" fill="#2A2829" transform="translate(0,0)"/>
<path d="" fill="#262424" transform="translate(0,0)"/>
<path d="" fill="#282829" transform="translate(0,0)"/>
<path d="" fill="#353236" transform="translate(0,0)"/>
<path d="" fill="#252624" transform="translate(0,0)"/>
<path d="" fill="#272827" transform="translate(0,0)"/>
<path d="" fill="#242426" transform="translate(0,0)"/>
<path d="" fill="#292828" transform="translate(0,0)"/>
<path d="" fill="#282625" transform="translate(0,0)"/>
<path d="" fill="#252627" transform="translate(0,0)"/>
<path d="" fill="#272625" transform="translate(0,0)"/>
<path d="" fill="#262627" transform="translate(0,0)"/>
<path d="" fill="#272525" transform="translate(0,0)"/>
<path d="" fill="#262326" transform="translate(0,0)"/>
<path d="" fill="#262425" transform="translate(0,0)"/>
<path d="" fill="#262426" transform="translate(0,0)"/>
<path d="" fill="#1F1F1F" transform="translate(0,0)"/>
<path d="" fill="#252524" transform="translate(0,0)"/>
<path d="" fill="#262525" transform="translate(0,0)"/>
<path d="" fill="#252225" transform="translate(0,0)"/>
<path d="" fill="#313131" transform="translate(0,0)"/>
<path d="" fill="#2F2E30" transform="translate(0,0)"/>
<path d="" fill="#2D2D2E" transform="translate(0,0)"/>
<path d="" fill="#262527" transform="translate(0,0)"/>
<path d="" fill="#252525" transform="translate(0,0)"/>
<path d="" fill="#242224" transform="translate(0,0)"/>
<path d="" fill="#201E1E" transform="translate(0,0)"/>
<path d="" fill="#242625" transform="translate(0,0)"/>
<path d="" fill="#262625" transform="translate(0,0)"/>
<path d="" fill="#272727" transform="translate(0,0)"/>
<path d="" fill="#262524" transform="translate(0,0)"/>
<path d="" fill="#242624" transform="translate(0,0)"/>
<path d="" fill="#262525" transform="translate(0,0)"/>
<path d="" fill="#211E20" transform="translate(0,0)"/>
<path d="" fill="#252624" transform="translate(0,0)"/>
<path d="" fill="#242425" transform="translate(0,0)"/>
<path d="" fill="#242524" transform="translate(0,0)"/>
<path d="" fill="#242323" transform="translate(0,0)"/>
<path d="" fill="#232220" transform="translate(0,0)"/>
<path d="" fill="#252626" transform="translate(0,0)"/>
<path d="" fill="#242223" transform="translate(0,0)"/>
<path d="" fill="#232323" transform="translate(0,0)"/>
<path d="" fill="#242123" transform="translate(0,0)"/>
<path d="" fill="#242121" transform="translate(0,0)"/>
<path d="" fill="#222221" transform="translate(0,0)"/>
<path d="" fill="#534968" transform="translate(0,0)"/>
<path d="" fill="#211E20" transform="translate(0,0)"/>
<path d="" fill="#201F1F" transform="translate(0,0)"/>
<path d="" fill="#252523" transform="translate(0,0)"/>
<path d="" fill="#211E20" transform="translate(0,0)"/>
<path d="" fill="#212321" transform="translate(0,0)"/>
<path d="" fill="#252120" transform="translate(0,0)"/>
<path d="" fill="#1C1D1D" transform="translate(0,0)"/>
<path d="" fill="#242323" transform="translate(0,0)"/>
<path d="" fill="#242022" transform="translate(0,0)"/>
<path d="" fill="#232524" transform="translate(0,0)"/>
<path d="" fill="#2A2828" transform="translate(0,0)"/>
<path d="" fill="#252323" transform="translate(0,0)"/>
<path d="" fill="#242323" transform="translate(0,0)"/>
<path d="" fill="#252727" transform="translate(0,0)"/>
<path d="" fill="#232122" transform="translate(0,0)"/>
<path d="" fill="#262628" transform="translate(0,0)"/>
<path d="" fill="#222222" transform="translate(0,0)"/>
<path d="" fill="#252425" transform="translate(0,0)"/>
<path d="" fill="#252425" transform="translate(0,0)"/>
<path d="" fill="#222120" transform="translate(0,0)"/>
<path d="" fill="#2F2D36" transform="translate(0,0)"/>
<path d="" fill="#252525" transform="translate(0,0)"/>
<path d="" fill="#242426" transform="translate(0,0)"/>
<path d="" fill="#242022" transform="translate(0,0)"/>
<path d="" fill="#222325" transform="translate(0,0)"/>
<path d="" fill="#262726" transform="translate(0,0)"/>
<path d="" fill="#272424" transform="translate(0,0)"/>
<path d="" fill="#9B76EE" transform="translate(0,0)"/>
<path d="" fill="#232122" transform="translate(0,0)"/>
<path d="" fill="#262526" transform="translate(0,0)"/>
<path d="" fill="#201D1D" transform="translate(0,0)"/>
<path d="" fill="#1E1C1D" transform="translate(0,0)"/>
<path d="" fill="#202021" transform="translate(0,0)"/>
<path d="" fill="#262628" transform="translate(0,0)"/>
<path d="" fill="#282629" transform="translate(0,0)"/>
<path d="" fill="#262724" transform="translate(0,0)"/>
<path d="" fill="#201E1E" transform="translate(0,0)"/>
<path d="" fill="#2D2A2B" transform="translate(0,0)"/>
<path d="" fill="#2B2929" transform="translate(0,0)"/>
<path d="" fill="#272629" transform="translate(0,0)"/>
<path d="" fill="#2C2D2B" transform="translate(0,0)"/>
<path d="" fill="#262625" transform="translate(0,0)"/>
<path d="" fill="#262525" transform="translate(0,0)"/>
<path d="" fill="#936AEE" transform="translate(0,0)"/>
<path d="" fill="#2B2A2C" transform="translate(0,0)"/>
<path d="" fill="#2B2929" transform="translate(0,0)"/>
<path d="" fill="#232121" transform="translate(0,0)"/>
<path d="" fill="#2F302F" transform="translate(0,0)"/>
<path d="" fill="#2C292D" transform="translate(0,0)"/>
<path d="" fill="#2A2C2B" transform="translate(0,0)"/>
<path d="" fill="#292629" transform="translate(0,0)"/>
<path d="" fill="#252628" transform="translate(0,0)"/>
<path d="" fill="#222021" transform="translate(0,0)"/>
<path d="" fill="#30302F" transform="translate(0,0)"/>
<path d="" fill="#313131" transform="translate(0,0)"/>
<path d="" fill="#343231" transform="translate(0,0)"/>
<path d="" fill="#303133" transform="translate(0,0)"/>
<path d="" fill="#32302F" transform="translate(0,0)"/>
<path d="" fill="#313033" transform="translate(0,0)"/>
<path d="" fill="#323031" transform="translate(0,0)"/>
<path d="" fill="#31312F" transform="translate(0,0)"/>
<path d="" fill="#232322" transform="translate(0,0)"/>
<path d="" fill="#292728" transform="translate(0,0)"/>
<path d="" fill="#262422" transform="translate(0,0)"/>
<path d="" fill="#252423" transform="translate(0,0)"/>
<path d="" fill="#292A2D" transform="translate(0,0)"/>
<path d="" fill="#4D4461" transform="translate(0,0)"/>
<path d="" fill="#454054" transform="translate(0,0)"/>
<path d="" fill="#473E4F" transform="translate(0,0)"/>
<path d="" fill="#2F2B2D" transform="translate(0,0)"/>
<path d="" fill="#443F4D" transform="translate(0,0)"/>
<path d="" fill="#313030" transform="translate(0,0)"/>
</svg>
